<svg xmlns="http://www.w3.org/2000/svg" version="1.1" xmlns:xlink="http://www.w3.org/1999/xlink" xmlns:svgjs="http://svgjs.com/svgjs" width="155.9" height="156"><svg version="1.1" id="SvgjsSvg1000" xmlns="http://www.w3.org/2000/svg" xmlns:xlink="http://www.w3.org/1999/xlink" x="0px" y="0px" viewBox="0 0 155.9 156" style="enable-background:new 0 0 155.9 156;" xml:space="preserve">
<style type="text/css">
	.st0{fill-rule:evenodd;clip-rule:evenodd;fill:#876BFA;}
	.st1{fill-rule:evenodd;clip-rule:evenodd;fill:#FF476E;}
	.st2{fill-rule:evenodd;clip-rule:evenodd;fill:#941C61;}
	.st3{fill-rule:evenodd;clip-rule:evenodd;fill:#FACC00;}
	.st4{fill-rule:evenodd;clip-rule:evenodd;fill:#F53814;}
	.st5{fill-rule:evenodd;clip-rule:evenodd;fill:#0ACCAD;}
	.st6{fill-rule:evenodd;clip-rule:evenodd;fill:#0D9E05;}
	.st7{fill-rule:evenodd;clip-rule:evenodd;fill:#053B4F;}
</style>
<path class="st0" d="M18.4,9c-2.3-2.2-1.8-7.3,3.2-4.9c3,1.5,14.5,10.5,24.2,18.5c2.6,2.1,7.8,5.8,4.8,9.5s-7.2-0.7-10.2-3.2
	C32.7,22.7,25.4,16,18.4,9z M31.6,81.8c-1.8-0.3-0.4-1.1,0.1-1.3c4.8-2,8.8-5.8,9.9-11c2-9.5-8.8-17.1-15-23.4
	C17.7,37.1,7.5,27.1,4.7,25.4C0,22.5-1,27.5,1,29.9c6.2,7.8,12.7,15.2,19.7,22.2c10.2,10.1,14,17.3,2.4,23.2s-8.7,12.8,2.6,14.9
	C83,101,97.2,47.4,67.8,22.3c-8-6.8-20.3-15.7-24.7-19s-8.9,0.4-4.6,4.5s10.6,7.2,21.1,18.7C82,51.1,63.5,84.6,31.6,81.8z M4.6,15.5
	C2.3,13.3,3,8.2,7.9,10.7c6,3.1,24.3,18.4,30.9,25.4c6.2,6.5-0.1,10.7-5.6,6.5c-2.7-2.1-4.5-4.3-7.2-6.5
	C18.5,29.6,11.3,22.8,4.6,15.5L4.6,15.5z"></path>
<path class="st1" d="M9,137.5c-2.2,2.3-7.3,1.8-4.9-3.2c1.5-3,10.5-14.5,18.5-24.2c2.1-2.6,5.8-7.8,9.5-4.8s-0.7,7.2-3.1,10.2
	C22.8,123.3,16.1,130.6,9,137.5L9,137.5z M81.8,124.4c-0.3,1.8-1.1,0.4-1.3-0.1c-2-4.8-5.8-8.8-11-9.9c-9.5-2-17.1,8.8-23.4,15
	c-8.9,8.8-18.9,19.1-20.6,21.9c-2.9,4.7,2.1,5.7,4.5,3.7c7.8-6.2,15.2-12.8,22.2-19.7c10.1-10.2,17.3-14,23.2-2.4s12.8,8.7,14.9-2.6
	C101,73,47.4,58.7,22.3,88.1c-6.8,8-15.7,20.3-19,24.7s0.4,8.9,4.5,4.6s7.2-10.6,18.7-21.1C51.1,73.9,84.6,92.5,81.8,124.4
	L81.8,124.4z M15.5,151.4c-2.2,2.2-7.4,1.6-4.8-3.3c3.1-6,18.4-24.3,25.4-30.9c6.5-6.1,10.7,0.1,6.5,5.6c-2.1,2.7-4.3,4.5-6.5,7.2
	C29.6,137.5,22.8,144.6,15.5,151.4z"></path>
<path class="st2" d="M31.6,81.8c-1.8-0.3-0.4-1.1,0.1-1.3c2.1-0.9,4-2.1,5.6-3.6c-5.8,2.6-10.9,6.5-15,11.3l-0.8,1
	c1.4,0.5,2.8,0.9,4.2,1.1c2.6,0.5,5.2,0.8,7.6,1.1c8.8-5.2,18.2-6,26.4-3.3c5.2-2.1,9.8-5.3,13.6-9.4c-4.4-2.7-9.4-4.4-14.6-5.1
	C52,79.5,42.5,82.8,31.6,81.8L31.6,81.8z"></path>
<path class="st3" d="M137.5,147c2.3,2.2,1.8,7.3-3.2,4.9c-3-1.5-14.5-10.5-24.2-18.5c-2.6-2.1-7.8-5.8-4.8-9.5s7.2,0.7,10.2,3.1
	C123.3,133.2,130.6,139.9,137.5,147z M124.4,74.1c1.8,0.3,0.4,1.1-0.1,1.3c-4.8,2-8.8,5.8-9.9,11c-2,9.5,8.8,17.1,15,23.4
	c8.8,8.9,19.1,18.9,21.9,20.6c4.7,2.9,5.7-2.1,3.7-4.5c-6.2-7.8-12.8-15.2-19.7-22.2c-10.2-10.1-14-17.3-2.4-23.2s8.7-12.8-2.6-14.9
	C73,55,58.7,108.6,88.1,133.6c8,6.8,20.3,15.7,24.7,19s8.9-0.4,4.6-4.5s-10.6-7.2-21.1-18.7C74,104.8,92.5,71.3,124.4,74.1z
	 M151.4,140.4c2.2,2.2,1.6,7.4-3.3,4.8c-6-3.1-24.3-18.4-30.9-25.4c-6.1-6.5,0.1-10.7,5.6-6.5c2.7,2.1,4.5,4.3,7.2,6.6
	C137.5,126.3,144.6,133.2,151.4,140.4z"></path>
<path class="st4" d="M81.8,124.4c-0.3,1.8-1.1,0.4-1.3-0.1c-0.9-2.1-2.1-4-3.6-5.6c2.6,5.8,6.5,10.9,11.3,15l1,0.8
	c0.5-1.4,0.9-2.8,1.1-4.2c0.5-2.6,0.8-5.2,1.1-7.6c-5.2-8.8-6-18.2-3.3-26.4c-2.1-5.2-5.3-9.8-9.4-13.6c-2.7,4.4-4.4,9.4-5.1,14.6
	C79.5,104,82.8,113.4,81.8,124.4L81.8,124.4z"></path>
<path class="st5" d="M147,18.4c2.2-2.3,7.3-1.8,4.9,3.2c-1.5,3-10.5,14.5-18.5,24.2c-2.1,2.6-5.8,7.8-9.5,4.8s0.7-7.2,3.1-10.2
	C133.2,32.7,139.9,25.4,147,18.4z M74.1,31.6c0.3-1.8,1.1-0.4,1.3,0.1c2,4.8,5.8,8.8,11,9.9c9.5,2,17.1-8.8,23.4-15
	c8.9-8.8,18.9-19.1,20.6-21.9C133.5,0,128.4-1,126,1c-7.8,6.2-15.2,12.8-22.2,19.7c-10.1,10.2-17.3,14-23.2,2.4s-12.8-8.7-14.9,2.6
	C55,83,108.6,97.2,133.6,67.8c6.8-8,15.7-20.3,19-24.7s-0.4-8.9-4.5-4.6s-7.2,10.6-18.7,21.1C104.8,82,71.3,63.5,74.1,31.6z
	 M140.4,4.6c2.2-2.2,7.4-1.6,4.8,3.3c-3.1,6-18.4,24.3-25.4,30.9c-6.5,6.1-10.7-0.1-6.5-5.6c2.1-2.7,4.3-4.5,6.6-7.2
	C126.3,18.5,133.2,11.3,140.4,4.6z"></path>
<path class="st6" d="M124.4,74.1c1.8,0.3,0.4,1.1-0.1,1.3c-2.1,0.9-4,2.1-5.6,3.6c5.8-2.6,10.9-6.5,15-11.3l0.8-1
	c-1.4-0.5-2.8-0.9-4.2-1.1c-2.6-0.5-5.2-0.8-7.6-1.1c-8.8,5.2-18.2,6-26.4,3.3c-5.2,2.1-9.8,5.3-13.6,9.4c4.4,2.7,9.4,4.4,14.6,5.1
	C104,76.5,113.4,73.1,124.4,74.1L124.4,74.1z"></path>
<path class="st7" d="M77.3,73.3c2.7-4.4,4.4-9.4,5.1-14.6c-5.8-6.7-9.2-16.1-8.2-27.2c0.3-1.8,1.1-0.4,1.3,0.1
	c0.9,2.1,2.1,4,3.6,5.6c-2.6-5.8-6.5-10.9-11.3-15l-1-0.8c-0.5,1.4-0.9,2.8-1.1,4.2c-0.5,2.6-0.8,5.2-1.1,7.6
	c5.2,8.8,6,18.2,3.3,26.4C70,64.8,73.2,69.5,77.3,73.3L77.3,73.3z"></path>
</svg><style>@media (prefers-color-scheme: light) { :root { filter: none; } }
</style></svg>