<svg id="Layer_3" data-name="Layer 3" xmlns="http://www.w3.org/2000/svg" xmlns:xlink="http://www.w3.org/1999/xlink" viewBox="0 0 2000 2000"><defs><style>.cls-1{fill:none;}.cls-2{clip-path:url(#clip-path);}.cls-3{fill:#fff;}.cls-4{fill:#07ccae;}</style><clipPath id="clip-path"><rect class="cls-1" width="2000" height="2000"/></clipPath></defs><rect class="cls-1" width="2000" height="2000"/><g class="cls-2"><rect class="cls-3" width="2000" height="2000"/><rect class="cls-1" width="2000" height="2000"/><path class="cls-4" d="M2403.64,1517.43a52.11,52.11,0,0,0-9.62,3.94l-.64.31c-1.77.86-3.51,1.88-5.35,3-3.5,2.06-7.13,4.19-11.22,5.28a299.35,299.35,0,0,1-38.15,8,279.55,279.55,0,0,1-36.64,2.11h0c-11.48,0-23.12-.46-34.38-.91-7.42-.3-15.1-.61-22.64-.78-4.13-.09-7.88-.14-11.46-.14-18.07,0-32.74,1.21-46.16,3.82-19.46,3.77-42.12,9.45-62.7,22.86-40.07,26.14-61,59.5-64,102a5,5,0,0,1-1.07,2.59c-.08.11-.17.23-.26.38a3.5,3.5,0,0,1-2.32,1.62c-.38.07-.77.16-1.17.26a23.25,23.25,0,0,1-3.52.62c-6.82.52-13.64.78-20.28.78a240,240,0,0,1-43.66-3.93c-7.13-1.32-14.31-2.91-21.26-4.45-3.93-.87-8-1.77-12-2.6-3.79-.8-7.3.2-9.16,2.56a7.51,7.51,0,0,0-1.15,6.54c.85,3.51,3.31,5.44,8.5,6.66,27.11,6.43,50,10.7,73.46,10.7h.66c8.7,0,17.29-.39,26.39-.77,4.21-.18,8.46-.35,12.78-.5h.12a3.52,3.52,0,0,1,2.3.86c.88.77,1.76,1.57,2.65,2.38,1.8,1.63,3.66,3.33,5.58,4.77a73.63,73.63,0,0,0,9.59,6.21c31.2,16.51,63,24.88,94.39,24.88a187.36,187.36,0,0,0,28.82-2.27c35.33-5.54,65.44-19.31,89.48-40.93a333.41,333.41,0,0,0,33.59-35.25c19.56-23.64,34.24-51.2,48.43-77.85,5.94-11.17,13.5-24.08,24.46-35.09a37.69,37.69,0,0,0,5-6.11c1.91-3,1.9-5.81-.06-8.6S2406.58,1516.68,2403.64,1517.43Zm-31.15,36.35c-.77,1.53-1.45,2.94-2.09,4.26-1.28,2.63-2.39,4.9-3.65,7.15-2,3.54-3.95,7.1-5.92,10.65-12.77,23-26,46.82-43.75,67.3-8,9.23-17.62,19.87-28.33,28.91-30.33,25.59-66,38.56-106,38.56h0a202.85,202.85,0,0,1-22.7-1.31c-19.57-2.22-39-8.18-59.39-18.23-1.78-.87-3.38-1.73-4.89-2.6a4.73,4.73,0,0,1-1.94-2.38l.09.16a3.49,3.49,0,0,1,2-5.1l11.26-3.58c7.9-2.5,16.07-5.09,24.05-7.72,26.08-8.61,53.91-20,87.58-35.93,8.64-4.08,17.15-9,25.37-13.71,3.13-1.8,6.27-3.61,9.42-5.37a13.4,13.4,0,0,0,3.5-3.06,7.16,7.16,0,0,0-7.33-11.56,53.92,53.92,0,0,0-9.51,4.55c-38.39,22-81.77,40.34-136.53,57.56-4.68,1.47-9.49,2.58-14.13,3.65-1.82.41-3.64.83-5.44,1.27a7.52,7.52,0,0,1-2.73,0c-.38,0-.84-.1-1.43-.14a3.51,3.51,0,0,1-3.22-4c.17-1.28.31-2.56.44-3.82a72.32,72.32,0,0,1,1.3-8.72c6.93-29.43,24.56-53.08,53.92-72.32,18.15-11.89,38.2-17,57.17-20.78,12.84-2.55,26.52-3.69,44.36-3.69,2.48,0,5,0,7.45.06,9.74.15,19.62.47,29.18.79,11.82.39,24.05.79,36.06.86h1.84c19.52,0,36.62-1.72,52.28-5.27,1.42-.32,2.81-.58,4.57-.91l3.35-.63a3.5,3.5,0,0,1,3.79,5Z"/><path class="cls-4" d="M2188.81,990c-22.76,4.88-43.16,9.63-62.28,18.41-31.84,14.62-54.63,37.93-67.75,69.27-4.62,11-8.75,22.5-12.76,33.6-1.82,5.07-3.71,10.32-5.63,15.46-1.39,3.73-2.8,7.45-4.26,11.32l-2.26,6a3.5,3.5,0,0,1-3,2.26c-1.19.1-2.3.21-3.35.31-2.12.21-4.12.4-6.14.46-3.85.1-7.65.16-11.3.16h0a285.78,285.78,0,0,1-47.78-3.68,26.83,26.83,0,0,0-5.86-.39c-3.8.23-6.4,2.38-7.12,5.91a7.56,7.56,0,0,0,4.41,8.13,25.06,25.06,0,0,0,6.14,1.77,294.28,294.28,0,0,0,48.44,4c5.46,0,11-.15,16.48-.45.66,0,1.3-.06,1.93-.06a20.46,20.46,0,0,1,12.61,4,122.57,122.57,0,0,0,21.75,12.65,186.33,186.33,0,0,0,75.16,16.16,195.5,195.5,0,0,0,53.9-7.83c46.12-13.26,82-35.28,109.54-67.33,30-34.84,49.77-77.69,60.46-131a171.94,171.94,0,0,0,2.77-21.34c.34-4.65-1.38-8.08-5.1-10.18a7.18,7.18,0,0,0-3.59-1c-1.93,0-4.07.81-7.16,2.71a80.19,80.19,0,0,1-14.85,7.42,220.11,220.11,0,0,1-51.37,11.44q-8.94.93-17.88,1.79C2238.51,982.29,2213.24,984.76,2188.81,990Zm146.4-7.87a25.86,25.86,0,0,1,3-.79l1.63-.39a3.48,3.48,0,0,1,4.33,3c0,.32.11.62.16.9a8.16,8.16,0,0,1,.14,3.47c-11.87,56.74-34,100.39-67.62,133.43-24.16,23.73-53.82,40.31-90.67,50.7a183.31,183.31,0,0,1-49.66,7h0a175.35,175.35,0,0,1-60.48-10.93c-1.89-.69-3.74-1.48-5.52-2.24l-2.41-1a3.5,3.5,0,0,1-2.08-4l.33-1.5a3.52,3.52,0,0,1,2.55-2.63l8-2c6-1.5,12.18-3.06,18.22-4.72,31.66-8.73,62.89-23.08,95.48-43.87,10.85-6.93,21.52-14.64,31.85-22.1q5.79-4.18,11.6-8.34c7.41-5.27,15-10.84,22.44-16.53a28.61,28.61,0,0,0,5.89-5.69,7.29,7.29,0,0,0-.48-8.7,7.56,7.56,0,0,0-8.23-1.93,21.56,21.56,0,0,0-4.91,2.84c-4.8,3.57-9.66,7.24-14.36,10.79-6.11,4.62-12.42,9.39-18.7,14-49.92,36.73-95.32,58.69-142.87,69.11-2.52.56-5.85,1.28-9.22,1.92-1.29.24-2.56.41-4,.59l-2.14.28a3.5,3.5,0,0,1-3.89-4.21c.13-.6.23-1.17.33-1.71a23.42,23.42,0,0,1,.94-3.87c1.74-4.76,3.47-9.62,5.14-14.31,4.12-11.58,8.38-23.55,13.21-35.11,11.76-28.1,32.4-48.87,61.36-61.71,17.43-7.74,37.43-13.27,62.93-17.39,22.27-3.62,45.65-6.69,69.5-9.14C2292.85,992.69,2314.39,989.42,2335.21,982.13Z"/><path class="cls-4" d="M1857.63,517.81a7.25,7.25,0,0,0-6.3,3.44,7.46,7.46,0,0,0,1.62,9.5,25.67,25.67,0,0,0,5.79,3.94c4.37,2.23,8.78,4.54,13,6.78,11.34,5.95,23.07,12.1,35,17.06,12.06,5,20.78,12,27.43,22a101,101,0,0,0,9.48,12.21c7.71,8.49,15.29,16.75,23.19,24.47,19.19,18.78,44,32.74,78,43.95a151.87,151.87,0,0,0,47.47,8c23.36,0,46-6.16,67.41-18.29a335.16,335.16,0,0,0,46.44-32.29c24.43-20,47-43,68.85-65.21q3.51-3.57,7-7.15c10.42-10.58,21.73-20.54,32.67-30.17q4.86-4.27,9.7-8.57c4.37-3.89,5.47-9,2.94-13.6-1.47-2.69-3.58-3.89-6.85-3.89a18.78,18.78,0,0,0-4.82.72l-2.21.59c-9.65,2.59-19.63,5.27-29.63,7.27a195.28,195.28,0,0,1-38.69,4.14h0a139.18,139.18,0,0,1-42.72-6.41c-11.16-3.56-22.74-6.6-33.93-9.53l-6.61-1.74c-18.5-4.89-37.64-9.94-57-11.28-3.91-.27-7.87-.41-11.78-.41-30.16,0-60.95,8-94.13,24.58-7.2,3.59-14.3,7.84-21.17,11.95-4,2.38-8.07,4.83-12.17,7.15l-1.41.8c-14.77,8.34-28.72,16.23-40,28.78a3.49,3.49,0,0,1-3.92.9c-1-.41-2-.79-3-1.16-2.15-.84-4.38-1.69-6.53-2.77-10.43-5.22-21-10.59-31.22-15.77l-13.92-7.06c-.5-.25-1-.51-1.49-.78a25.41,25.41,0,0,0-3.47-1.63A9.26,9.26,0,0,0,1857.63,517.81Zm86.93,30.83c1-.75,1.94-1.44,2.79-2.09a49.68,49.68,0,0,1,5.11-3.58c5.94-3.44,11.93-7.06,17.73-10.56,13.72-8.28,27.9-16.84,42.6-23.92,26.76-12.89,54-19.43,81.06-19.43a178,178,0,0,1,50.35,7.43c10.21,3,20.7,5.78,30.85,8.45,9.25,2.44,18.82,5,28.18,7.67a151.43,151.43,0,0,0,42,5.83,178.1,178.1,0,0,0,23.2-1.56c2.74-.37,5.49-.7,8.7-1.08l4.38-.53a3.5,3.5,0,0,1,2.94,5.9c-2.7,2.81-5.28,5.54-7.79,8.2-5.18,5.48-10.07,10.66-15.23,15.65-20.35,19.67-40.27,38.88-60.31,57.53a246.31,246.31,0,0,1-47.63,34.27c-19.62,11-40.33,16.55-61.56,16.55h0a136.45,136.45,0,0,1-41-6.57c-33.07-10.41-58.92-25.42-79-45.9A173.61,173.61,0,0,1,1960.09,587c-1.45-1.84-2.95-3.73-4.46-5.57a3.61,3.61,0,0,1-1-.94l-.24-.32a3.5,3.5,0,0,1,4.5-5.14l.09,0,.08,0c1.83.25,3.66.48,5.49.71,4.78.6,9.71,1.21,14.56,2.25a388.19,388.19,0,0,0,80.87,8.3c14.88,0,30.36-.79,46-2.36,8.57-.87,17.29-2.37,25.72-3.83,3.79-.66,7.72-1.33,11.59-1.95a24,24,0,0,0,2.85-.68c5.24-1.44,7.86-4.78,7-8.95-.79-3.92-3.83-6.26-8.12-6.26a12.3,12.3,0,0,0-1.58.1c-4.84.62-9.77,1.46-14.53,2.27-2.8.47-5.59.95-8.39,1.39a387.8,387.8,0,0,1-59.77,4.69,383.66,383.66,0,0,1-71.35-6.75c-11.18-2.12-22.52-4.38-33.49-6.56l-5.08-1a22.5,22.5,0,0,1-3.14-.93l-2.14-.73a3.5,3.5,0,0,1-1-6.16Z"/><path class="cls-4" d="M1876.61,1522.82a19.71,19.71,0,0,0,4.2-.5,178.35,178.35,0,0,1,39.22-4.79,127.17,127.17,0,0,1,21.62,1.81,255.87,255.87,0,0,0,43.76,3.86,238.59,238.59,0,0,0,45.7-4.42c42.72-8.37,76.45-26.74,103.13-56.17,19.44-21.46,31.78-44,37.7-68.93a244.82,244.82,0,0,0,6.95-48.66c.35-9.52,3.34-17.08,9.42-23.82a272,272,0,0,0,40-59.24,28.84,28.84,0,0,0,3-8.86c.46-3.32-1.74-5.21-3.67-6.21-2.74-1.43-5.27-1.28-7.44.5a21.44,21.44,0,0,0-4.59,5.7c-1.65,2.78-3.22,5.72-4.74,8.55-2.43,4.52-4.94,9.2-7.87,13.59-5.91,8.88-12.11,17.49-18.09,25.82-2.36,3.29-4.69,6.52-6.94,9.69a3.48,3.48,0,0,1-3.63,1.38c-4.4-1-8.57-2-12.6-2.91-8.23-1.92-16-3.73-23.7-5.31a236.29,236.29,0,0,0-47.31-5,207.31,207.31,0,0,0-55.91,7.62c-40.39,11.32-73.55,34.65-101.37,71.33-19.22,25.35-31.34,53.62-40.65,77.92l-1,2.47c-6.39,16.69-13,34-23.45,49.32a8.43,8.43,0,0,0-1.31,7.74C1868.6,1520.38,1871.74,1522.82,1876.61,1522.82Zm15.45-24.58c4.92-10.87,9.35-22.08,13.64-32.92,9.6-24.27,19.53-49.37,35.23-71.34,23.76-33.22,51-55.25,83.1-67.33a186,186,0,0,1,65.62-12c6.27,0,12.68.31,19,.94,10.35,1,20.69,3,30.7,4.85,4.22.79,8.58,1.61,12.86,2.35a15.77,15.77,0,0,1,3.18,1c.55.22,1.18.46,1.94.72a3.51,3.51,0,0,1,1.17,5.93l-2.19,1.94c-1.41,1.26-2.63,2.35-3.89,3.41-34.87,29.25-73.13,51.58-113.72,66.38-4.4,1.6-8.92,2.89-13.29,4.14-2.58.74-5.25,1.51-7.83,2.32l-2.34.72a44.72,44.72,0,0,0-8.25,3.07,7,7,0,0,0-3.29,8,7,7,0,0,0,7,5.25h.48a22.77,22.77,0,0,0,5.21-.65c24.49-5.78,49.67-15.84,79.23-31.67a354.33,354.33,0,0,0,54.38-35.94c1.51-1.21,3.11-2.29,4.61-3.28a5.1,5.1,0,0,1,2.61-.76c.27,0,.61,0,1.07-.11a3.52,3.52,0,0,1,3.95,3.86c-.17,1.44-.32,2.87-.47,4.27-.35,3.25-.68,6.33-1.1,9.47-5,37.17-22,68.74-50.65,93.82-22.29,19.51-49.42,32.44-80.63,38.43a236.16,236.16,0,0,1-44.2,4.17,257.38,257.38,0,0,1-41.81-3.51c-17.18-2.83-30.64-3-43.24-.76a13.53,13.53,0,0,1-3.06.12c-.53,0-1.14,0-1.88,0a3.5,3.5,0,0,1-3.19-4.94Z"/><path class="cls-4" d="M2035.39,913.29c.07-.15.13-.31.2-.47.46-1.08.92-2.18,1.37-3.29l.39-.94c1-2.56,2.06-5.21,3.08-8,0-.14.1-.28.16-.43-9.1.75-17.55,1.74-25.69,3a11.12,11.12,0,0,1-2.52,0c-.2,0-.39,0-.58,0a3.51,3.51,0,0,1-3.31-2.66,2.46,2.46,0,0,0-.09-.29,4.3,4.3,0,0,1,.09-3.62c4.19-7.42,8.33-14.8,12.48-22.18,10.76-19.18,21.89-39,33.14-58.34a155.44,155.44,0,0,1,39-44.72c.44-.58.88-1.15,1.33-1.72l.68-.9c.74-.93,1.47-1.85,2.22-2.75.89-1.09,1.8-2.17,2.72-3.24l.74-.85c.84-1,1.69-1.92,2.56-2.86.09-.11.19-.23.29-.33,1-1,1.92-2.06,2.9-3.08l.79-.81c.85-.87,1.71-1.73,2.58-2.59l.51-.5c1-1,2-2,3.09-2.94l.82-.75c.89-.81,1.78-1.62,2.69-2.42l.67-.59q1.64-1.42,3.31-2.82l.83-.68c.94-.78,1.89-1.55,2.86-2.31l.8-.64c1.17-.91,2.36-1.83,3.57-2.73.25-.2.52-.39.78-.58,1-.76,2.06-1.52,3.1-2.26l.92-.66c1.16-.82,2.34-1.64,3.53-2.46-22.65,8.24-40.92,18.34-56.49,31.12-17.31,14.21-31.93,32.16-46,56.5-5.07,8.77-9.93,17.91-14.62,26.74-12.47,23.46-25.37,47.72-43.82,68.3-2.92,3.24-2.11,8.91.48,12.16a6.84,6.84,0,0,0,5.78,2.87,17.58,17.58,0,0,0,5.46-1.07c1.4-.48,2.81-1,4.21-1.48,5.81-2.06,11.82-4.19,18.09-5l1.27-.16c7.18-.91,14.59-1.85,22-2.68,0-.1.09-.2.14-.31C2034.35,915.7,2034.87,914.51,2035.39,913.29Z"/><path class="cls-4" d="M1908.91,129.18a7.89,7.89,0,0,0,2.77-.51,36.16,36.16,0,0,0,7-3.62c21.78-13.86,37.09-25.87,49.62-39a3.51,3.51,0,0,1,3.1-1c1.79.29,3.42.61,5,.93a44.46,44.46,0,0,0,8,1.13h1.42a133.08,133.08,0,0,0,50.51-9.95c25.27-10.34,45.94-27.52,61.43-51.08,21.12-32.14,29.73-66.91,25.56-103.33-2-17.81-6.64-35.52-11.2-52.12-1.8-6.6-4-13.28-6.07-19.73-6.14-18.87-12.48-38.39-11.09-59.65a5.17,5.17,0,0,0-1.43-4,8.13,8.13,0,0,0-5.9-2.33,10.1,10.1,0,0,0-2.11.23c-3.65.84-6.24,3-8.63,7.27a207.81,207.81,0,0,1-12.28,19.38C2051-169.3,2033.24-154.39,2016-140l-1.7,1.43c-15.21,12.75-32.66,27.78-47.42,44.92-21.45,24.92-33.27,51.26-36.13,80.52-2.42,24.86.94,44.3,10.58,61.18,3.06,5.36,6.29,10.47,10,16.39,1.78,2.81,3.63,5.75,5.58,8.88a3.51,3.51,0,0,1-1.08,4.8l-1.24.77c-1.18.72-2.64,1.62-3.94,2.6q-13.11,9.87-26.18,19.77L1910.39,112c-.84.64-1.7,1.22-2.52,1.78a26.86,26.86,0,0,0-4,3.07,7.61,7.61,0,0,0-1,9.17A7,7,0,0,0,1908.91,129.18Zm37.54-141.55c2.51-24.69,12.19-46.93,29.57-68,13.2-16,28.3-29.61,46.92-45.21l1.83-1.54c17.33-14.51,35.26-29.52,49.26-47.76a5.81,5.81,0,0,1,1.71-1.42l.15-.08a3.44,3.44,0,0,1,3.64-.2l.1,0a4.27,4.27,0,0,1,2.61,2.65c1.94,6.63,3.93,13.24,5.92,19.84,5,16.7,10.22,34,14.63,51.16A182.1,182.1,0,0,1,2108.46-64c1.32,38.1-11.74,71.89-38.81,100.44-19.56,20.61-45,32.3-75.62,34.72-.49,0-1,.06-1.48.06s-1.18,0-1.78-.09a5.54,5.54,0,0,1-2.2-.76c-.2-.11-.46-.26-.82-.43a3.49,3.49,0,0,1-1.34-5.16l1.45-2.08c1.16-1.66,2.3-3.29,3.46-4.9,27.12-37.72,46.78-74.56,60.11-112.62,3.27-9.34,5.94-19.13,8.53-28.6l.83-3a15.64,15.64,0,0,0,.24-6.85c-.57-3-2.52-4.72-5.79-5.18a6.48,6.48,0,0,0-7.13,3.42,38.69,38.69,0,0,0-3.43,9.08c-12.1,46.31-34.36,91.29-68.07,137.52-1.27,1.74-2.58,3.37-3.82,4.87a5.13,5.13,0,0,1-2.37,1.51c-.24.09-.55.21-1,.38a3.5,3.5,0,0,1-4.29-1.24c-.76-1.11-1.53-2.22-2.32-3.35-1.66-2.38-3.38-4.84-5-7.39C1947.81,30.11,1944.07,10.93,1946.45-12.37Z"/><path class="cls-4" d="M2112.09,1870.65c-1.8-6.6-4-13.28-6.07-19.73-6.14-18.87-12.48-38.39-11.09-59.65a5.17,5.17,0,0,0-1.43-4,8.13,8.13,0,0,0-5.9-2.33,10.1,10.1,0,0,0-2.11.23c-3.65.84-6.24,3-8.63,7.27a207.81,207.81,0,0,1-12.28,19.38c-13.57,18.9-31.34,33.81-48.54,48.22l-1.7,1.43c-15.21,12.75-32.66,27.78-47.42,44.92-21.45,24.92-33.27,51.26-36.13,80.52-2.42,24.86.94,44.3,10.58,61.18,3.06,5.36,6.29,10.47,10,16.39,1.78,2.81,3.63,5.75,5.58,8.88a3.51,3.51,0,0,1-1.08,4.8l-1.24.77c-1.18.72-2.64,1.62-3.94,2.6q-13.11,9.87-26.18,19.77L1910.39,2112c-.84.64-1.7,1.22-2.52,1.78a26.86,26.86,0,0,0-4,3.07,7.61,7.61,0,0,0-1,9.17,7,7,0,0,0,6,3.17,7.89,7.89,0,0,0,2.77-.51,36.16,36.16,0,0,0,7-3.62c21.78-13.86,37.09-25.87,49.62-39a3.51,3.51,0,0,1,3.1-1c1.79.29,3.42.61,5,.93a44.46,44.46,0,0,0,8,1.13h1.42a133.08,133.08,0,0,0,50.51-10c25.27-10.34,45.94-27.52,61.43-51.08,21.12-32.14,29.73-66.91,25.56-103.33C2121.26,1905,2116.65,1887.25,2112.09,1870.65Zm-42.44,165.78c-19.56,20.61-45,32.3-75.62,34.72-.49,0-1,.06-1.48.06s-1.18,0-1.78-.09a5.54,5.54,0,0,1-2.2-.76c-.2-.11-.46-.26-.82-.43a3.49,3.49,0,0,1-1.34-5.16l1.45-2.08c1.16-1.66,2.3-3.29,3.46-4.9,27.12-37.72,46.78-74.56,60.11-112.62,3.27-9.34,5.94-19.13,8.53-28.6l.83-3a15.49,15.49,0,0,0,.24-6.85c-.57-3-2.52-4.72-5.79-5.18a6.49,6.49,0,0,0-7.13,3.42,38.86,38.86,0,0,0-3.43,9.08c-12.1,46.31-34.36,91.29-68.07,137.52-1.27,1.74-2.58,3.37-3.82,4.87a5.13,5.13,0,0,1-2.37,1.51c-.24.09-.55.21-1,.38a3.5,3.5,0,0,1-4.29-1.24c-.76-1.11-1.53-2.22-2.32-3.35-1.66-2.38-3.38-4.84-5-7.39-10.07-16.19-13.81-35.37-11.43-58.67,2.51-24.69,12.19-46.93,29.57-68,13.2-16,28.3-29.61,46.92-45.21l1.68-1.41c17.39-14.55,35.37-29.6,49.41-47.89a5.81,5.81,0,0,1,1.71-1.42l.15-.08a3.44,3.44,0,0,1,3.64-.2l.1,0a4.27,4.27,0,0,1,2.61,2.65c1.94,6.63,3.93,13.24,5.92,19.84,5,16.7,10.22,34,14.63,51.16a182.1,182.1,0,0,1,5.67,38.85C2109.78,1974.09,2096.72,2007.88,2069.65,2036.43Z"/><path class="cls-4" d="M1925.85,453.74c.32,0,.64.05,1,.05a7,7,0,0,0,6.85-4.9,33.18,33.18,0,0,0,1.25-5.17c.13-.7.26-1.4.4-2.09,2.51-12.12,5-24.25,7.54-36.56a3.5,3.5,0,0,1,3-2.77l3-.39c1.26-.17,2.19-.29,3.14-.39,30.77-3.2,56-13.7,77.21-32.12s37.77-41.94,50.27-71.56c9.19-21.82,12.1-44.75,14.29-66.36q.48-4.83.95-9.66c2.47-25.49,5-51.86,14.67-76.77a8.5,8.5,0,0,0-3.49-10.43,8.7,8.7,0,0,0-4.65-1.52c-2.08,0-4.17,1-6.21,3-12.75,12.45-28.49,20.66-42.38,27.91L2042,169.55c-15.07,7.84-30.65,15.94-45.68,24.39a177.27,177.27,0,0,0-53.45,45.4c-28.59,36.7-39.05,77.61-31.1,121.6,2.38,13.17,5.87,26.94,15.13,38.42a3.46,3.46,0,0,1,.69,3c-.59,2.62-1.21,5.27-1.83,7.93-1.49,6.36-3,12.94-4.27,19.49a95.73,95.73,0,0,0-1.85,17.79C1919.68,451.17,1922.78,453.41,1925.85,453.74Zm11.56-176.06c13.71-29.35,36.18-52.71,68.71-71.41,12.56-7.23,25.63-14,38.28-20.49,5.62-2.9,11.43-5.9,17.11-8.9l18.62-9.8a3.5,3.5,0,0,1,5.09,3.59c-.23,1.63-.45,3.15-.66,4.59-.43,2.88-.8,5.37-1.09,7.89-.89,7.58-1.72,15.32-2.53,22.8-1.65,15.34-3.36,31.2-5.62,46.75-6.32,43.42-26.32,79.59-59.45,107.53-15.37,12.95-33.68,20.93-56,24.38a9.65,9.65,0,0,1-1.54.11l-1,0c-.47,0-1,0-1.79,0a3.5,3.5,0,0,1-3.21-4.9l1.92-4.4c9.75-22.39,19-43.54,32.91-62.62,11.18-15.25,22.83-30.52,34.11-45.29q8.07-10.57,16.11-21.17l.83-1.08a36.78,36.78,0,0,0,3.73-5.49,7.34,7.34,0,0,0-1.47-8.68,7,7,0,0,0-4.83-1.93,8.32,8.32,0,0,0-4.45,1.38,12.43,12.43,0,0,0-2.72,2.34c-25.74,31-50.43,61.7-69.57,96.58-4.51,8.22-8.53,17-12.42,25.42-1.75,3.8-3.56,7.73-5.39,11.58l-.17.34a19.35,19.35,0,0,1-4.38,6.37,3.51,3.51,0,0,1-5.75-1.45c-.22-.69-.47-1.38-.72-2.07a40,40,0,0,1-1.59-5.2C1921.81,333.2,1924.72,304.83,1937.41,277.68Z"/><path class="cls-4" d="M1905.43,830.7c-21.33-50.54-52.52-85.63-95.35-107.27-29.07-14.68-54-21.78-78.52-22.33-23.79-.53-44.68.79-64.36,4.08-11.16,1.87-22.09,3.43-32.49,4.64a99.35,99.35,0,0,1-11.34.69,68.72,68.72,0,0,1-18.39-2.35,23.53,23.53,0,0,0-8-1,7.72,7.72,0,0,0-6.51,4.1,6.94,6.94,0,0,0,.58,7c1.86,2.85,4.86,5.37,7.76,7.8l1.34,1.13a27.12,27.12,0,0,0,3.8,2.46,38.4,38.4,0,0,1,3.84,2.4c17.84,13,32.7,31.1,45.43,55.18l1.68,3.17c13.79,26.06,28,53,45.23,77.59,29.28,41.91,70.86,69,123.57,80.46a98.88,98.88,0,0,0,21.29,2.2c11.24,0,23.62-1.64,39-5.17a3.61,3.61,0,0,1,.79-.09,3.47,3.47,0,0,1,2.88,1.52c.34.49.71,1,1.08,1.5a35.4,35.4,0,0,1,2.72,4.09c1.17,2.19,2.36,4.35,3.55,6.52,3.48,6.33,7.07,12.88,10.14,19.6,3,6.5,5.63,13.22,8.19,19.71,1.54,3.89,3.13,7.92,4.76,11.82,1.91,4.58,5.57,6.69,9.53,5.48s5.83-5.07,4.93-9.89a36,36,0,0,0-2.1-7l-1.76-4.37c-7.12-17.65-14.47-35.9-25.14-52a17.24,17.24,0,0,1-1.29-2.45c-.13-.28-.25-.55-.39-.83a3.5,3.5,0,0,1,.33-3.63,3.43,3.43,0,0,1,1.49-1.16c.66-2.1,1.34-4.19,2-6.23a177.72,177.72,0,0,0,5.23-18.28C1917,880.43,1915.17,853.8,1905.43,830.7Zm-12,85.94a3.5,3.5,0,0,1-6,1.45l-2.81-3.19-2.1-2.39c-28.53-32.76-60.87-69.9-97.43-101.1-9.45-8.06-19.78-15.53-29.76-22.75-4-2.85-8-5.8-12-8.76a21.79,21.79,0,0,0-5.58-2.9,7.29,7.29,0,0,0-8.79,2.76,7.2,7.2,0,0,0,1,9,65.79,65.79,0,0,0,9,6.94c32.35,22.1,63.48,50.34,98,88.88l10.94,12.21q10.07,11.23,20.12,22.5c1.26,1.42,2.4,2.91,3.6,4.48.57.74,1.16,1.52,1.8,2.34a3.49,3.49,0,0,1-1.57,5.45c-.53.2-1,.39-1.43.57a14.36,14.36,0,0,1-3.27,1,141.23,141.23,0,0,1-20.72,1.58,118.47,118.47,0,0,1-40.7-7.07c-39.65-14.48-68.8-35.33-89.14-63.74a480.06,480.06,0,0,1-35.5-57.63l-4-7.67c-9.71-18.85-19.75-38.34-33.9-54.66l-10.84-12.46a3.5,3.5,0,0,1,2.12-5.76l9.5-1.45c26.4-4.06,51.32-7.89,77.15-7.89,5.06,0,10.07.15,14.88.46,23.54,1.48,44.41,9.8,63.46,18.58,31,14.29,56,37.92,78.63,74.4,11.43,18.4,17.92,36.35,19.87,54.88C1899.53,881.23,1898.12,897.72,1893.39,916.64Z"/><path class="cls-4" d="M1832.82,1625c-4.89-7.38-10.12-14.75-15.17-21.88-5.44-7.66-11.05-15.58-16.31-23.58-14.61-22.19-24-46-28-70.82-1.89-11.86-2.83-24-3.74-35.75-.18-2.29-.35-4.59-.54-6.88-.43-5.37-1-8.77-4.73-10.74-4.94-2.59-10-.63-13.36,5q-18.48,31.23-37,62.44c-16.25,27.33-36.49,63.91-48.9,104.48-16,52.33-19.09,95.14-9.69,134.71,15.89,67,55.47,109.28,117.66,125.78,7,1.84,14.3,3.07,21.4,4.26,2.61.43,5.29.88,8,1.36a3.47,3.47,0,0,1,1.8-.7h.31a3.51,3.51,0,0,1,2.88,1.51l.86,1.25q1.65,2.35,3.28,4.73c12.81,18.65,24.92,32.65,38.11,44a32.32,32.32,0,0,0,5.26,4,7.26,7.26,0,0,0,9.75-10.42,29.83,29.83,0,0,0-5.25-5.6c-10.93-9.53-21.26-21.32-32.51-37.12a22.18,22.18,0,0,1-2-3.47l-.32-.65a3.5,3.5,0,0,1,.72-4.22c2.56-2.34,5.14-4.57,7.64-6.72,5.29-4.55,10.29-8.86,14.46-13.77,17.26-20.31,28.46-43,33.32-67.52,9.16-46.26,2.76-89.22-19-127.67C1853.19,1655.86,1844,1641.8,1832.82,1625Zm21.77,202.2c-9.76,19.92-20.09,32.91-33.51,42.11-.79.54-1.58,1-2.67,1.64l-2.16,1.28a3.51,3.51,0,0,1-5-1.62c-1.48-3.45-3-6.83-4.43-10.16-3.18-7.21-6.18-14-8.9-21.1-20.31-53-32.52-106.68-36.28-159.41-.48-6.61-.75-13.32-1-19.81-.17-4.21-.35-8.56-.59-12.83l0-.75a75.75,75.75,0,0,0-1.16-11.28,6.93,6.93,0,0,0-7.49-5.73c-3.21.17-6.52,2.2-6.67,6.35l-.1,2.66c-.35,9.3-.72,18.91.28,28.1.56,5.1,1.09,10.2,1.63,15.3,2.41,22.94,4.91,46.66,9.35,69.52a538.91,538.91,0,0,0,35.71,113.26c.45,1,.87,2.07,1.36,3.32l1,2.41a3.5,3.5,0,0,1-3.24,4.83,2.89,2.89,0,0,1-.5,0l-2-.26c-1.39-.18-2.59-.33-3.85-.62-11.32-2.56-26.13-6.48-40.27-14.1-34.28-18.47-57.89-48.47-70.18-89.17-9.06-30-10.27-62.23-3.7-98.54,7.37-40.83,22.25-80.54,45.47-121.39,6.57-11.56,13.52-23.13,20.25-34.32q4-6.63,8-13.27c.89-1.5,1.85-2.9,3-4.51.51-.75,1.06-1.55,1.65-2.43a3.5,3.5,0,0,1,6.22.82c.24.7.47,1.29.68,1.83a15.73,15.73,0,0,1,1.06,3.52,209.6,209.6,0,0,0,33,86.78c5.08,7.66,10.51,15.32,15.76,22.73,4.72,6.66,9.59,13.54,14.23,20.45,7.93,11.8,16.18,24.64,26,40.43,12.83,20.66,20.33,43.49,22.93,69.78C1871.34,1774.54,1866.88,1802.09,1854.59,1827.2Z"/><path class="cls-4" d="M1863,1201c-.27-24.37-5.37-46.34-15.16-65.3-12-23.32-30.15-44.27-53.86-62.27a410.39,410.39,0,0,0-98.34-54.89c-19.1-7.49-39.12-16.07-55.42-31.15a11.85,11.85,0,0,0-2.07-1.54,9.69,9.69,0,0,0-4.84-1.41c-3.93,0-6.81,2.79-7.36,7.12a30.21,30.21,0,0,0,.64,8.22l.21,1.29c.3,1.92.72,3.81,1.16,5.81.53,2.36,1.07,4.8,1.4,7.3,3.3,24.79,1.83,48.59-.42,77.13-3.21,40.48,2.95,76.61,18.82,110.45,14.84,31.65,33.8,56.43,58,75.76,19.92,15.91,43.45,25.53,63.84,32.85,11.37,4.07,23.58,8,36.78,8,1.45,0,2.91,0,4.34-.14h.23a3.49,3.49,0,0,1,3.25,2.21l.43,1a10.22,10.22,0,0,1,.68,1.9c.36,1.53.72,3.15,1,4.83a338.13,338.13,0,0,1,3,78.44l-.09,1.12a31.23,31.23,0,0,0-.17,5,7.44,7.44,0,0,0,6.46,7.18,8.23,8.23,0,0,0,1.1.07,7.16,7.16,0,0,0,7-5.25,30.23,30.23,0,0,0,1.13-7c2.54-32.41,1-61.78-4.55-89.78a21.36,21.36,0,0,1,3.2-16.89C1853.38,1269.92,1863.37,1236.26,1863,1201Zm-31.76,71.67c-.72,1.37-1.51,2.71-2.27,4-.33.55-.66,1.1-1,1.66a3.5,3.5,0,0,1-6.28-.45c-1.32-3.31-2.63-6.56-3.92-9.78-3.07-7.62-6-14.81-8.76-22.2-21.38-56.54-49.7-101.43-86.58-137.23l-.3-.29a44.24,44.24,0,0,0-6.21-5.34,7.42,7.42,0,0,0-9.23.64c-2.6,2.44-3,5.77-1.12,9.14a19.92,19.92,0,0,0,3.86,4.8c29.1,26.68,49,59.43,64.65,87.95,14.5,26.44,23.92,55.21,33,83l1.38,4.2a20.51,20.51,0,0,1,.74,3.79c.09.64.19,1.36.32,2.17a3.49,3.49,0,0,1-3.45,4.08h-.32c-1.07-.1-2.1-.16-3.1-.21a38.07,38.07,0,0,1-6.66-.77c-31.21-7.29-58.1-19.55-79.93-36.46-22.91-17.74-41.08-41.22-54-69.78-15-33.21-20.73-68-17.47-106.27,2.38-27.68,2.74-49.45,1.18-70.6a3.5,3.5,0,0,1,4.78-3.51l1.76.68c1.19.46,2.32.9,3.44,1.39q6.9,3.1,13.78,6.25c9.18,4.19,18.68,8.51,28.1,12.49,35.59,15.05,65.85,32.79,92.52,54.23,15.46,12.44,29.19,28.2,40.8,46.87,8.55,13.76,13.65,30.38,15.57,50.83C1849.5,1219.23,1844.33,1247.73,1831.22,1272.71Z"/><path class="cls-4" d="M1684.57,258.35c21.11,10.74,40.51,15.37,59.63,14.25,12-.7,21.07-1.58,29.5-2.84a27.17,27.17,0,0,1,4.08-.33c5.26,0,9.64,1.87,13.78,5.88a189.39,189.39,0,0,0,48.38,34.25,46.22,46.22,0,0,0,10.38,3.85,7.34,7.34,0,0,0,1.54.17,7,7,0,0,0,6.45-4.3,7.2,7.2,0,0,0-2.51-8.93,31.15,31.15,0,0,0-5.4-3l-1-.47a184.21,184.21,0,0,1-49.08-34.62,3.5,3.5,0,0,1-.87-3.62c1.11-3.27,2.21-6.42,3.28-9.5,2.38-6.83,4.63-13.29,6.51-19.8,2.64-9.19,4.57-18.43,6.11-26.26,6.54-33.34,4-66.93-7.51-99.84-3.93-11.2-10.17-22-16.21-32.43-1.15-2-2.31-4-3.45-6-13.48-23.69-34.52-41.43-54.87-58.59l-1-.8C1717.81-6.83,1703-20,1687-34.94c-9-8.38-15.69-19.53-20-33.15-.92-2.92-1.55-5.91-2.16-8.79-.51-2.38-1-4.62-1.61-6.83-1.19-4.22-4-6.87-7.37-6.91h-.16c-4,0-6.81,1.93-8.42,5.9a46,46,0,0,0-2.44,9.51c-4.52,27.72-10.93,57.16-19.62,90-4.38,16.54-7.88,31.51-10.71,45.77-7.83,39.53-6.83,77.81,3,113.78C1628,212.77,1650.56,241,1684.57,258.35ZM1630.15,62.16c3.38-15.83,7.37-31.77,11.24-47.19,2-7.88,4-16,5.94-24,1.74-7.26,3.42-14.68,5.05-21.86.69-3,1.38-6.11,2.08-9.16a3.5,3.5,0,0,1,3.84-2.69h.18A4.18,4.18,0,0,1,1662.1-41c10.75,16.11,25.6,29,40,41.48l4.39,3.82c6.56,5.74,13.36,11.45,19.93,17s13.14,11,19.62,16.7c20.37,17.81,36.12,41.33,46.81,69.92,11.15,29.83,13.55,61.14,7.11,93-1.83,9.11-4.17,18.23-6.43,27.05q-.7,2.73-1.4,5.46a47.18,47.18,0,0,1-2.28,6.41c-.44,1.08-.91,2.23-1.4,3.52a3.5,3.5,0,0,1-5.9,1.07c-.93-1.06-1.8-2-2.6-2.89-1.62-1.8-3-3.35-4.34-5a404.5,404.5,0,0,1-60.18-108q-2-5.54-4.11-11.05c-6.84-18.36-13.92-37.33-18.58-56.89a8.47,8.47,0,0,0-.46-1.37c-1.85-4.48-4.8-7-8.09-7a7.68,7.68,0,0,0-2.53.45c-5.86,2.06-4.91,8.64-4.22,11.37,4.41,17.78,10.76,35.32,16.89,52.29,1.65,4.57,3.31,9.15,4.93,13.73,12.12,34.32,29.81,67.79,55.66,105.32,2.05,3,4.36,5.88,6.8,9q1.77,2.23,3.66,4.66a3.49,3.49,0,0,1-2,5.56,108.78,108.78,0,0,1-22.77,2.49c-16.25,0-31.87-3.86-47.75-11.79-32.82-16.39-53.08-43.13-61.93-81.76A232.07,232.07,0,0,1,1630.15,62.16Z"/><path class="cls-4" d="M1855.8,2300.35a31.15,31.15,0,0,0-5.4-3l-1-.47a184.21,184.21,0,0,1-49.08-34.62,3.5,3.5,0,0,1-.87-3.62c1.11-3.27,2.21-6.42,3.28-9.5,2.38-6.83,4.63-13.29,6.51-19.8,2.65-9.22,4.57-18.45,6.11-26.26,6.54-33.34,4-66.93-7.51-99.84-3.93-11.2-10.17-22-16.21-32.43-1.15-2-2.31-4-3.45-6-13.48-23.69-34.52-41.43-54.87-58.59l-1-.8c-14.55-12.28-29.39-25.49-45.37-40.39-9-8.38-15.69-19.53-20-33.14-.92-2.93-1.55-5.92-2.16-8.8-.51-2.38-1-4.62-1.61-6.83-1.19-4.22-4-6.87-7.37-6.91h-.16c-4,0-6.81,1.93-8.42,5.9a46.67,46.67,0,0,0-2.44,9.52c-4.52,27.72-10.94,57.16-19.62,90-4.38,16.54-7.88,31.51-10.71,45.77-7.83,39.53-6.83,77.81,3,113.78,10.48,38.44,33,66.71,67,84,21.11,10.74,40.51,15.36,59.63,14.25,12-.7,21.07-1.58,29.5-2.84a27.17,27.17,0,0,1,4.08-.33c5.26,0,9.64,1.87,13.78,5.88a189.19,189.19,0,0,0,48.38,34.25,46.22,46.22,0,0,0,10.38,3.85,7.34,7.34,0,0,0,1.54.17,7,7,0,0,0,6.45-4.3A7.2,7.2,0,0,0,1855.8,2300.35Zm-63.72-66.92a47.18,47.18,0,0,1-2.28,6.41c-.44,1.08-.91,2.23-1.4,3.52a3.5,3.5,0,0,1-5.9,1.07c-.93-1.06-1.8-2-2.6-2.89-1.62-1.8-3-3.35-4.34-5a404.5,404.5,0,0,1-60.18-108q-2-5.53-4.11-11c-6.84-18.36-13.92-37.33-18.58-56.89a8.47,8.47,0,0,0-.46-1.37c-1.85-4.48-4.8-7.06-8.09-7.06a7.75,7.75,0,0,0-2.53.46c-5.86,2.06-4.91,8.64-4.22,11.37,4.41,17.78,10.76,35.32,16.89,52.29,1.65,4.57,3.31,9.15,4.93,13.73,12.12,34.32,29.81,67.79,55.66,105.32,2.05,3,4.36,5.88,6.8,8.95q1.77,2.24,3.66,4.66a3.49,3.49,0,0,1-2,5.56,108.78,108.78,0,0,1-22.77,2.49c-16.25,0-31.87-3.86-47.75-11.79-32.82-16.39-53.08-43.13-61.93-81.76a232.07,232.07,0,0,1-.69-101.24c3.38-15.83,7.37-31.77,11.24-47.19,2-7.88,4-16,5.94-24,1.74-7.26,3.42-14.68,5.05-21.86.69-3,1.38-6.11,2.08-9.16a3.48,3.48,0,0,1,3.85-2.69h.19a4.21,4.21,0,0,1,3.56,1.68c10.78,16.15,25.61,29,40,41.51,1.48,1.29,3,2.57,4.43,3.87,6.52,5.69,13.28,11.37,19.82,16.86s13.22,11.11,19.73,16.8c20.37,17.81,36.12,41.33,46.81,69.92,11.15,29.83,13.55,61.14,7.11,93.05-1.83,9.11-4.17,18.23-6.43,27Q1792.78,2230.7,1792.08,2233.43Z"/><path class="cls-4" d="M1577.53,354.68c.44,14.07.68,28.37.92,42.19.26,15,.53,30.42,1,45.61,1,30.75,6.21,57.58,15.85,82,8.71,22.09,22.33,38.78,41.63,51,27.7,17.58,53.56,26.12,79.07,26.12a121.08,121.08,0,0,0,26.18-2.92,3.92,3.92,0,0,1,.76-.08,3.48,3.48,0,0,1,2.31.87l3.2,2.81c2,1.78,4.19,3.67,6.34,5.57,19,16.71,42.78,26.69,63.8,35.5a16.86,16.86,0,0,0,4.8,1c.32,0,.63.05.94.05,3.59,0,6.3-1.9,7.22-5.07,1.05-3.6-.41-6.84-4-8.89a36.84,36.84,0,0,0-3.38-1.6l-1.13-.49q-4.11-1.85-8.22-3.64c-5.3-2.34-10.77-4.76-16.12-7.23-15.5-7.17-28.19-15.69-38.8-26a3.51,3.51,0,0,1-.94-3.37c.63-2.46,1.27-4.83,1.89-7.14,1.25-4.67,2.44-9.08,3.37-13.49a189.51,189.51,0,0,0,3.88-43.54c-1.39-53.31-23.49-94.52-65.68-122.5-9.56-6.33-19.89-12-29.89-17.44l-5.55-3c-16.6-9.14-36-20.52-53.7-35.67a77.32,77.32,0,0,1-19.18-23.68,50,50,0,0,0-3.41-5.91c-1.93-2.74-4.32-4.25-6.76-4.25s-4.9,1.47-7,4.15c-2.76,3.56-3.61,7.34-2.77,12.24C1575.7,336.54,1577.24,345.52,1577.53,354.68Zm16.18,3.77c0-.28.08-.59.12-1a3.49,3.49,0,0,1,1.44-2.51,3.54,3.54,0,0,1,2.84-.56c.27.07.49.1.67.13a4.9,4.9,0,0,1,2.6,1.08c22.81,19.92,49.65,34.68,73,46.95A206.8,206.8,0,0,1,1693.55,414c38.24,25.52,58.06,62.6,58.91,110.21a193.69,193.69,0,0,1-3.73,41.11A21.92,21.92,0,0,1,1748,568l-.52,1.65a3.49,3.49,0,0,1-5.73,1.56c-.51-.47-1-.89-1.44-1.28a26.94,26.94,0,0,1-2.81-2.74,697.13,697.13,0,0,1-61.8-84.9c-6.73-10.91-12.61-22.5-18.3-33.72-2.44-4.81-5-9.79-7.52-14.63-.64-1.22-1.21-2.46-1.77-3.66a41.69,41.69,0,0,0-2.57-5,8.59,8.59,0,0,0-7.06-4.35,6.84,6.84,0,0,0-2.86.63c-3.93,1.8-5.33,5.79-3.57,10.16,3.1,7.63,6.7,15.48,10.7,23.31,19.7,38.66,45.67,77.22,79.39,117.9,1.17,1.41,2.28,2.83,3.67,4.63l2.18,2.79a3.5,3.5,0,0,1-2.62,5.66c-1.29,0-2.45.11-3.52.17-1.64.09-3.06.17-4.48.17-.59,0-1.17,0-1.75,0-30.61-1.68-58.61-13-83.2-33.75a69.69,69.69,0,0,1-17.11-22c-11.81-22.85-18.23-48.7-19.65-79-1-21.26-1.31-42.89-1.62-63.81-.13-9-.27-18.27-.46-27.41A11.55,11.55,0,0,1,1593.71,358.45Z"/><path class="cls-4" d="M1628.26,1499.52c11.23-14,17.64-30.73,23.84-46.9a131.94,131.94,0,0,0,7.81-61.25c-3.69-35.93-18.22-69-43.2-98.27-20.3-23.81-45.6-44.95-79.63-66.56-21.95-13.93-44.16-28.26-65.64-42.12l-27.87-18-.7-.45a12.45,12.45,0,0,0-1.66-1,11.06,11.06,0,0,0-4.39-1.06,6.45,6.45,0,0,0-4.39,1.72c-2.51,2.19-3.23,4.69-2.21,7.66a84.76,84.76,0,0,0,4.52,11.23c5,9.85,10.3,21.65,11.5,34.53,1.65,17.86,2.51,32.72,2.71,46.76q.13,9.29.18,18.56c.21,26.08.42,53,3.81,79.44,6.41,49.89,25.18,92.47,57.37,130.18,18.75,22,37.6,35.5,59.32,42.6a52.23,52.23,0,0,1,4.95,2c.7.31,1.41.64,2.15.95a3.48,3.48,0,0,1,2.12,3.47c-.08,1.09-.13,2.14-.18,3.18a66.09,66.09,0,0,1-.55,6.63l-1,6.93c-3,21.2-6.16,43.13-13.48,64a20.27,20.27,0,0,0-1,8.83,6.62,6.62,0,0,0,6.66,5.68,6.94,6.94,0,0,0,2.17-.35,8.16,8.16,0,0,0,5.58-6c1.09-4.11,2.25-8.28,3.37-12.31,3-10.82,6.11-22,8.26-33.14,2.24-11.52,3.69-23,5.23-35.24.66-5.2,1.34-10.59,2.08-16a3.52,3.52,0,0,1,1.09-2.09c.33-.3.72-.65,1.15-1a39.74,39.74,0,0,0,3-2.78c2.63-2.88,5.34-5.76,8-8.55C1615.65,1514,1622.33,1506.92,1628.26,1499.52Zm-24.44,5c-.58.53-1.22,1.12-1.93,1.79a3.49,3.49,0,0,1-5.85-1.91c-.12-.64-.23-1.17-.33-1.63a13.79,13.79,0,0,1-.4-2.81c-.14-48.82-14.42-93.86-28.38-131.48-6.33-17.06-15.27-33.27-23.92-49-3.31-6-6.72-12.18-10-18.36l-.24-.46a47.21,47.21,0,0,0-2.5-4.43c-1.92-2.84-4.73-4.54-7.52-4.54a6.72,6.72,0,0,0-3.38.91c-3.63,2.09-4.63,6.26-2.55,10.63,3.72,7.88,7.32,14.71,11,20.9,24.28,40.72,40.18,85.82,48.63,137.85,2,12.14,2.33,24.63,2.68,36.71.15,5.29.31,10.76.61,16.1a9.19,9.19,0,0,1-.4,2.82c-.09.36-.2.77-.3,1.27a3.49,3.49,0,0,1-3.43,2.81,3.7,3.7,0,0,1-1.18-.2c-8.64-3.09-18.59-6.93-27.16-13.52-14.3-11-27.23-25-40.7-44.24-20.15-28.7-32.54-61.46-37.88-100.15-3.79-27.49-4.19-54.65-4.07-77.6l0-4.92c.14-25,.28-50.91-5.16-76.17a3.51,3.51,0,0,1,3.82-4.22c.32,0,.58,0,.81.06a5.72,5.72,0,0,1,2.79.7l1.14.67c33.74,20,68.62,40.65,100,65.52,28.85,22.83,49,46.9,61.71,73.6,15.22,32.06,19,63.59,11.31,93.69-7,27.24-18.2,49-34.27,66.56C1606,1502.55,1605,1503.46,1603.82,1504.52Z"/><path class="cls-4" d="M1442.45,850.6a290.76,290.76,0,0,0-55.67,5.3c-42.3,8.23-72.8,29.79-93.23,65.91-9.82,17.36-13.17,34.25-10.24,51.64a3.5,3.5,0,0,1-1.39,3.41l-.82.63a17.83,17.83,0,0,1-2.62,1.82c-15.11,8.12-28.87,19.32-43.33,35.25a35.47,35.47,0,0,0-5.07,6.77,7.23,7.23,0,0,0,10.54,9.5,31.36,31.36,0,0,0,5.07-4.83l.09-.1c15.22-16.76,28.9-27.58,44.36-35.09a3.5,3.5,0,0,1,2.95,0l.87.37a10.85,10.85,0,0,1,1.85.9c27,17.3,58.32,28.63,93,33.67a230.41,230.41,0,0,0,32.89,2.41,204.35,204.35,0,0,0,54.25-7.2c45.55-12.53,85.33-39.74,118.24-80.89,11.85-14.83,24.92-30.47,40.09-44.31,1.31-1.19,2.65-2.35,4-3.47,2.23-1.92,4.34-3.74,6.28-5.74a7.71,7.71,0,0,0,1.3-9.92c-1.73-3-5.5-4.92-8.49-4.1a87.57,87.57,0,0,1-23.62,3h0c-10.77,0-21.28-1.61-30.13-3.18-15.78-2.81-31.7-6.16-47.1-9.4-7.67-1.62-15.61-3.29-23.42-4.87A353,353,0,0,0,1442.45,850.6ZM1546,881.16c13.08,2.58,26.53,4.61,39.55,6.58,5.93.89,12.07,1.82,18.09,2.78.72.12,1.43.27,2.39.49l1.86.39a3.51,3.51,0,0,1,1.86,5.8c-7.28,7.93-14.12,16.33-20.74,24.45-12.84,15.75-26.12,32.05-42.68,45-29.17,22.79-53.73,35.3-79.64,40.58a241.06,241.06,0,0,1-47.92,5h0a201.64,201.64,0,0,1-59.9-9c-13.18-4.08-28.5-9.18-43.57-18a3.5,3.5,0,0,1,.35-6.22l3.38-1.53c2.16-1,4.2-1.93,6.31-2.69,27.2-9.66,56.4-17.3,89.27-23.37,27.59-5.1,55.18-10.66,80.88-15.91a98.9,98.9,0,0,0,15.56-5.1l.28-.11c4.41-1.72,6.29-4.95,5.3-9.08-.88-3.67-4.48-5.82-9.16-5.39a12.56,12.56,0,0,0-3.07.62c-22.11,7.68-45.32,11.55-67.76,15.28l-7.46,1.25c-34.23,5.78-79,14.67-121.85,32.26a21.1,21.1,0,0,1-3.15.92l-1.61.39a3.5,3.5,0,0,1-4.38-3.15c-.72-10.72,1.64-20.85,7.2-31,17.3-31.45,41-50.55,72.59-58.41a269.59,269.59,0,0,1,65.76-7.75c6.47,0,13.15.2,19.88.61,21.31,1.27,42.25,5.75,62.5,10.07C1532.67,878.41,1539.4,879.85,1546,881.16Z"/><path class="cls-4" d="M1526.58,1821.18c-1.2-.5-2.46-.9-3.79-1.33l-1.65-.54c-1.39-.47-2.78-.92-4.17-1.37-2.81-.91-5.72-1.85-8.56-2.94-15.27-5.87-29.82-14.91-44.47-27.63a3.49,3.49,0,0,1-.75-4.38c.27-.47.52-.91.74-1.32a25.73,25.73,0,0,1,1.59-2.67c6.86-9.85,11.31-20.79,14.77-30.18,4.42-12.06,7.13-25.44,8.78-43.36,4.39-47.61-8.47-89.66-38.22-125a326.81,326.81,0,0,0-28.74-30c-10.08-9.27-20.55-18.51-30.68-27.44-12.65-11.15-25.74-22.69-38.24-34.47-33.11-31.19-53.57-60.74-64.4-93l-.11-.33c-.15-.43-.3-.87-.48-1.29-1.93-4.35-4.59-6.58-7.9-6.58a13.3,13.3,0,0,0-6.17,1.86,10.67,10.67,0,0,0-5.7,7.38c-.43,2-.88,4.08-1.34,6.13-1.42,6.45-2.89,13.11-3.74,19.67-3.7,28.71-5.52,59.83-5.73,98v1.38c-.17,32.41-.35,65.93,4.34,98.53,3.2,22.22,7.07,45.8,16,68.38,8.74,22,17.9,38.68,28.85,52.65,18.33,23.39,43.44,39.18,76.77,48.27,13.58,3.71,25.57,5.51,36.67,5.5a94.24,94.24,0,0,0,22.85-2.71,3.44,3.44,0,0,1,.84-.1,3.52,3.52,0,0,1,2.23.8c1,.8,1.92,1.62,2.87,2.44a75.27,75.27,0,0,0,6.16,4.94c3,2.07,6,4.23,9,6.31,8,5.73,16.34,11.65,25,16.3,8.86,4.76,18.88,8,28.58,11.22l4.31,1.42a9.2,9.2,0,0,0,2.85.47,7.67,7.67,0,0,0,7.37-5.15C1534,1825.57,1530.14,1822.66,1526.58,1821.18Zm-71.41-55c-1,1.75-2.07,3.56-3.16,5.52a3.49,3.49,0,0,1-5.7.6c-2.94-3.38-5.86-6.64-8.69-9.79-6.06-6.76-11.78-13.14-17-20-40.73-53.26-69.51-110.78-85.53-171-1.81-6.82-3.57-13.76-5.27-20.47q-1.65-6.54-3.32-13a36.17,36.17,0,0,0-1.63-5.19c-1.81-4.2-5.43-6.32-9.18-5.3a7.85,7.85,0,0,0-5.35,9.06c1.22,7,2.85,14.36,5,22.43,6.94,26.33,16.88,60.77,32.39,93.57,21.54,45.55,45.9,83.47,74.47,115.92l.27.31c.68.77,1.38,1.56,2,2.44a5.57,5.57,0,0,1,.93,2.22c.06.24.13.54.24.93a3.5,3.5,0,0,1-2.67,4.4,32,32,0,0,1-6.42.61,62.51,62.51,0,0,1-8.32-.68,166.13,166.13,0,0,1-52.93-16.67c-18.08-9.22-32.84-23.34-45.12-43.15-14.59-23.51-24.43-50.77-30.09-83.33-5.75-33.13-7.82-68.36-6.72-114.24.49-20.14,1.69-40.57,2.84-60.33.51-8.6,1-17.5,1.48-26.24a24.67,24.67,0,0,1,.34-2.63c.08-.5.18-1.08.27-1.78a3.5,3.5,0,0,1,5.9-2c.38.37.73.67,1,.93a9.45,9.45,0,0,1,2.07,2.26c19.74,32.91,45.7,62.42,79.35,90.24a741.54,741.54,0,0,1,67.13,62.41c19.09,20.21,31.85,45.2,37.93,74.26,4.37,20.94,2.46,42.11.31,58.21a142.93,142.93,0,0,1-11.31,39.18A112.07,112.07,0,0,1,1455.17,1766.22Z"/><path class="cls-4" d="M1339.56,124.53c15.63,47.69,42,80.54,80.78,100.43,5.62,2.89,11.12,6,17,9.22,2.82,1.57,5.72,3.2,8.76,4.86a3.52,3.52,0,0,1,1.79,3.42c-.39,4-.73,8.08-1,12-.73,9-1.48,18.22-3.06,27.26-2,11.27-4.73,22.54-7.4,33.43-1,4.27-2.09,8.53-3.09,12.8-1.19,5.06.62,9.34,4.51,10.65s7.65-.69,9.68-5.17a71.7,71.7,0,0,0,3.52-10.18c6.34-22.18,10.19-46,11.77-72.71.38-6.49,2.9-11.24,7.93-14.95a88.44,88.44,0,0,0,10.13-8.81c21.5-21.72,35.9-48.84,42.79-80.6,7.6-35,5.72-67.21-5.75-98.34-8.39-22.73-21.63-44.83-41.66-69.54-25.49-31.44-53.07-53-84.31-66a347.82,347.82,0,0,0-34.78-12.19,16.89,16.89,0,0,0-4.76-.74,9.88,9.88,0,0,0-7.85,3.37c-2.24,2.68-3,6.65-2.21,11.2a87.4,87.4,0,0,1,1.2,11.68c1,26.25-1.9,51.62-4.91,73-3.25,23-6.68,49.83-6.23,76.39C1332.64,94.74,1334.94,110.46,1339.56,124.53Zm8.38-58.28c.44-18.82,2.79-37.62,5.06-55.81,1.34-10.67,2.72-21.7,3.68-32.56s1.45-22.21,1.91-33.08c.19-4.43.37-8.87.59-13.3.09-1.78.07-3.62,0-5.75,0-1.11,0-2.3,0-3.6a3.49,3.49,0,0,1,1.41-2.8,3.5,3.5,0,0,1,3.08-.56c1.13.34,2.14.62,3.07.89,1.74.49,3.23.91,4.74,1.42a187.84,187.84,0,0,1,68.63,41.31,278.69,278.69,0,0,1,51.75,66.21c19.92,35.13,25.39,73.88,16.27,115.17a149.57,149.57,0,0,1-29,61.73c-1.73,2.17-3.58,4.19-5.73,6.54-1,1.09-2.08,2.27-3.24,3.57a3.5,3.5,0,0,1-6.08-1.87c-.16-1.16-.3-2.15-.43-3-.24-1.65-.43-2.95-.52-4.3-3.72-54.92-13.59-103.28-30.17-147.85l-.18-.49c-6.15-16.52-12-32.13-21.47-46.34l-.7-1.07a21.75,21.75,0,0,0-2.42-3.29,7.13,7.13,0,0,0-8.67-1.55,7.62,7.62,0,0,0-3.82,8.48,13.39,13.39,0,0,0,1.77,4.35c10.93,15.82,17,33.8,23,51.18,1.25,3.69,2.55,7.5,3.87,11.22,9.84,27.75,14.88,56.93,18.86,84.33,1.52,10.46,2.39,21.14,3.23,31.46.35,4.3.71,8.75,1.11,13.11a33.43,33.43,0,0,1,.07,3.67c0,.7,0,1.49,0,2.42a3.48,3.48,0,0,1-1.67,3,3.43,3.43,0,0,1-1.83.52,3.5,3.5,0,0,1-1.58-.38c-26.56-13.49-47.44-27-63-48.93C1357.35,139,1347,104.92,1347.94,66.25Z"/><path class="cls-4" d="M1476.16,1978.33c-25.49-31.44-53.07-53-84.31-66a347.82,347.82,0,0,0-34.78-12.19,16.89,16.89,0,0,0-4.76-.74,9.83,9.83,0,0,0-7.85,3.37c-2.24,2.68-3,6.65-2.21,11.19a86.26,86.26,0,0,1,1.2,11.7c1,26.24-1.9,51.61-4.91,73-3.25,23-6.68,49.83-6.23,76.39.33,19.71,2.63,35.43,7.25,49.5,15.63,47.69,42,80.54,80.78,100.43,5.62,2.89,11.12,6,17,9.22,2.82,1.57,5.72,3.2,8.76,4.86a3.52,3.52,0,0,1,1.79,3.42c-.39,4-.73,8.08-1,12-.73,9-1.48,18.22-3.06,27.26-2,11.27-4.73,22.54-7.4,33.43-1,4.27-2.09,8.53-3.09,12.8-1.19,5.06.62,9.34,4.51,10.65s7.65-.69,9.68-5.17a71.7,71.7,0,0,0,3.52-10.18c6.34-22.18,10.19-46,11.77-72.71.38-6.49,2.9-11.24,7.93-15a88.44,88.44,0,0,0,10.13-8.81c21.5-21.72,35.9-48.84,42.79-80.6,7.6-35,5.72-67.21-5.75-98.34C1509.43,2025.14,1496.19,2003,1476.16,1978.33Zm32,165.46a149.57,149.57,0,0,1-29,61.73c-1.73,2.17-3.58,4.19-5.72,6.53-1,1.1-2.08,2.28-3.25,3.58a3.5,3.5,0,0,1-6.08-1.87c-.16-1.16-.3-2.15-.43-3-.24-1.65-.43-2.95-.52-4.3-3.72-54.92-13.59-103.28-30.17-147.85l-.18-.49c-6.15-16.52-12-32.13-21.47-46.34l-.7-1.07a21.75,21.75,0,0,0-2.42-3.29,7.33,7.33,0,0,0-5.31-2.41,7.21,7.21,0,0,0-3.36.86,7.62,7.62,0,0,0-3.82,8.48,13.39,13.39,0,0,0,1.77,4.35c10.93,15.82,17,33.8,23,51.18,1.25,3.69,2.55,7.5,3.87,11.22,9.84,27.75,14.88,56.93,18.86,84.33,1.52,10.46,2.39,21.14,3.23,31.46.35,4.3.71,8.75,1.11,13.11a33.62,33.62,0,0,1,.07,3.68c0,.69,0,1.48,0,2.41a3.48,3.48,0,0,1-1.67,3,3.43,3.43,0,0,1-1.83.52,3.5,3.5,0,0,1-1.58-.38c-26.56-13.49-47.44-27-63-48.93-22.14-31.32-32.46-65.35-31.55-104,.44-18.82,2.79-37.62,5.06-55.81,1.34-10.67,2.72-21.7,3.68-32.56s1.45-22.2,1.91-33.07c.19-4.44.37-8.88.59-13.31.09-1.78.07-3.62,0-5.75,0-1.11,0-2.3,0-3.6a3.51,3.51,0,0,1,4.49-3.36c1.13.34,2.14.62,3.07.89,1.74.49,3.23.91,4.74,1.42a187.84,187.84,0,0,1,68.63,41.31,278.69,278.69,0,0,1,51.75,66.21C1511.8,2063.75,1517.27,2102.5,1508.15,2143.79Z"/><path class="cls-4" d="M1250.67,815.87a27.18,27.18,0,0,0-5.34,6.88c-1.33,2.6.06,5,1.46,6.6a7,7,0,0,0,4.93,2.67,5.29,5.29,0,0,0,2-.39,26.47,26.47,0,0,0,7.89-4.84c6.58-5.93,13.11-12.19,19.42-18.23l4.76-4.55c3-2.82,5.87-5.66,8.94-8.66l4.78-4.66a3.48,3.48,0,0,1,3-1c.75.11,1.48.24,2.2.36,1.27.22,2.47.43,3.62.52,4.31.35,8.63.53,12.83.53,33.22,0,63.73-11,90.69-32.68,9.91-8,18.77-17.36,25.39-24.65,34.4-38,52.25-81.35,53.06-129,.54-31.32-2.24-62-6.58-98.53-.9-7.56-2.09-15.25-3.25-22.69-3-19.46-6.15-39.58-4.49-60a7.77,7.77,0,0,0-5-8,7.92,7.92,0,0,0-2.59-.44,8.7,8.7,0,0,0-6.71,3.39,34.85,34.85,0,0,0-4.1,6.68A155.5,155.5,0,0,1,1424.58,470l-3,2.87c-15.87,15-32.29,30.6-49.57,44.61-33,26.8-57.93,51.17-78.36,76.69-15.8,19.74-25.55,41.38-29,64.34-4.47,30-.3,60.21,12.42,89.93,2.52,5.89,5.25,11.59,8.14,17.63,1.33,2.77,2.68,5.57,4,8.42a3.49,3.49,0,0,1-.57,3.82c-.53.59-1,1.2-1.58,1.81-1.21,1.4-2.46,2.85-3.87,4.22q-6.43,6.27-12.92,12.5C1263.81,803.07,1257.15,809.5,1250.67,815.87Zm37.8-183.79c6.41-15.59,17.17-28.24,27.56-40.48l.35-.41c21-24.68,45.64-45.57,67-62.75,29.63-23.81,51.71-45,69.5-66.79a5.93,5.93,0,0,1,1.65-1.33l.52-.33a3.49,3.49,0,0,1,2.68-.54A3.55,3.55,0,0,1,1460,461c.08.13.18.25.27.37a6.28,6.28,0,0,1,1.43,3c.77,5.35,1.61,10.79,2.41,16.05,2,12.92,4,26.27,5.3,39.51,2.33,24.19,3.74,48.53,4.92,71.24,2.52,48.83-13.34,92.75-47.16,130.54a272.52,272.52,0,0,1-21.87,22c-19.82,17.63-44.58,28.24-73.57,31.55a37.86,37.86,0,0,1-4.39.21c-1.11,0-2.28,0-3.54-.06-1.43,0-3-.07-4.71-.07a3.5,3.5,0,0,1-2.84-5.54c.81-1.13,1.53-2.16,2.2-3.11,1.34-1.89,2.5-3.53,3.73-5.13a947.65,947.65,0,0,0,60.48-88c17-28,29.18-54.84,37.31-82,1.16-3.85,2.48-7.68,3.75-11.39,1.35-3.92,2.75-8,3.92-12a23.67,23.67,0,0,0,.8-8.46c-.22-2.65-1.9-4.42-5-5.26a6.5,6.5,0,0,0-7.49,2.59,23.46,23.46,0,0,0-3,6.17l-1.54,4.47c-2.9,8.39-5.89,17.07-8.45,25.69-11.17,37.56-31.77,70.5-50.19,98.43-9.68,14.66-20.21,29.07-30.4,43-4.27,5.85-8.69,11.89-13,17.86a47.74,47.74,0,0,1-3.21,3.9c-.58.66-1.22,1.39-1.92,2.22a3.5,3.5,0,0,1-5.82-.75C1275.65,711,1272.49,671,1288.47,632.08Z"/><path class="cls-4" d="M1339.57,1162.79c7-18,14.13-36.68,23.89-54a4.69,4.69,0,0,0,.45-1.07,7.93,7.93,0,0,0-1-7,6.65,6.65,0,0,0-5.4-2.62h-.77c-5.12,0-9,.67-11.82,2.06-17,8.31-36.57,13.13-61.69,15.18-13.94,1.14-28.12,2-41.84,2.83-12.23.74-24.88,1.51-37.29,2.47a192.23,192.23,0,0,0-58.92,13.94c-41.73,17.3-72.87,47.73-92.54,90.44-3.51,7.61-6.63,15.33-9.94,23.5-1.54,3.8-3.11,7.66-4.75,11.6a3.49,3.49,0,0,1-3,2.15c-.94.07-1.91.16-2.89.25-2.25.21-4.59.43-7,.52-3.06.1-6.15.15-9.19.15h0a279.87,279.87,0,0,1-49.92-4.54,45.65,45.65,0,0,0-8.11-.83c-.55,0-1.09,0-1.63,0a6.57,6.57,0,0,0-6.22,5.21c-.76,3.53.52,6.54,3.43,8.07a28.53,28.53,0,0,0,7.83,2.49,293.89,293.89,0,0,0,54.62,5.28c8,0,16.09-.36,24-1.07.72-.06,1.45-.09,2.2-.09a25.12,25.12,0,0,1,9.75,1.92c36,15.56,70.26,23.95,104.88,25.63,3,.15,6,.22,8.88.22,40.17,0,76.27-13.87,107.3-41.22,26.3-23.19,45.86-50.07,58.15-79.9C1334,1177.24,1336.84,1169.9,1339.57,1162.79Zm-35.1,39.74c-21.06,34.38-46,58.31-76.41,73.17a138.51,138.51,0,0,1-61.48,14.1c-1.55,0-3.09,0-4.63-.07a260.36,260.36,0,0,1-66.48-10.6c-1.15-.34-2.24-.75-3.62-1.26l-2.8-1a3.5,3.5,0,0,1,0-6.59c1-.37,1.94-.7,2.73-1,1.56-.57,2.79-1,4.1-1.4a488.38,488.38,0,0,0,95.63-38c13.11-7,26-15,38.5-22.71,5.47-3.4,11.14-6.91,16.75-10.3,3.43-2.07,7.09-4.32,11.87-7.3,2.73-1.71,6.91-5.38,4.27-10.71a7.09,7.09,0,0,0-6.66-3.88,12,12,0,0,0-4.49.93,52.59,52.59,0,0,0-7.64,4.13c-4.51,2.83-9.07,5.76-13.48,8.59-7.74,5-15.73,10.11-23.79,14.9a459.7,459.7,0,0,1-139.74,55,31.09,31.09,0,0,1-4,.51c-.68,0-1.44.11-2.29.2a3.5,3.5,0,0,1-3.63-4.74c.58-1.49,1.11-2.89,1.61-4.23,1-2.7,2-5.25,3-7.75,8.6-20.56,18.36-37.13,29.85-50.65,22.14-26,51.59-43.39,87.56-51.55,15.52-3.54,31.4-4.62,46.76-5.66,3.54-.24,7.08-.48,10.61-.75l9.51-.72c19.5-1.48,39.66-3,59.41-5a140.64,140.64,0,0,0,18.07-3.5c3-.71,6.09-1.45,9.32-2.13a3.5,3.5,0,0,1,4,4.73c-2.83,7-5.49,14.13-8.06,21C1321.62,1167.44,1314.87,1185.53,1304.47,1202.53Z"/><path class="cls-4" d="M1167.29,320.09c21.53,9.86,45.75,16.13,78.54,20.34,7.18.92,14.53,1.72,21.63,2.5,23.85,2.6,48.51,5.29,72.11,13.08a14.79,14.79,0,0,0,5.8.38,7.48,7.48,0,0,0,6.15-3.92,7.2,7.2,0,0,0-.42-7,32.33,32.33,0,0,0-6.62-7.62c-11.63-10.25-23.59-21.79-32.31-36.67l-.88-1.51c-5.63-9.6-11.45-19.54-15.9-30-10.16-23.88-19.4-47.42-29.57-73.51-11.22-28.83-24.54-58.94-45.82-83.84-30.33-35.5-65.39-52.76-107.2-52.76-2.94,0-6,.09-9,.26a3.48,3.48,0,0,1-3.55-2.49c-.11-.35-.23-.7-.34-1a19.37,19.37,0,0,1-.86-3.17,275.87,275.87,0,0,1-.62-79.32c.12-.9.26-1.79.41-2.69a36.81,36.81,0,0,0,.63-6.05,7.29,7.29,0,0,0-6.1-7.54,7.1,7.1,0,0,0-1.38-.14,7.24,7.24,0,0,0-6.63,4.55,30.69,30.69,0,0,0-2.12,8c-4.78,34.2-4,65.66,2.33,96.18.64,3.1.21,6.71-1.35,11.36-1,3.09-2.3,6.12-3.53,9.06a79.27,79.27,0,0,0-4.74,13.6c-8.35,39-8.09,75.17.78,110.56C1089.73,262.35,1119.33,298.12,1167.29,320.09Zm-76.72-212.45a3.5,3.5,0,0,1,6.39-1.17c.4.63.77,1.17,1.1,1.66a18.73,18.73,0,0,1,1.83,3.11c19.3,44.66,49,87.37,93.49,134.43,7,7.38,12.35,13,17.48,18.23a32,32,0,0,0,5.47,4.66,8.36,8.36,0,0,0,4.52,1.37,7,7,0,0,0,5.11-2.14c2.58-2.69,2.77-6.32.51-9.71a29.24,29.24,0,0,0-3.59-4.08l-3.66-3.77c-16.46-17-33.48-34.58-48.36-53.71-12.11-15.57-27.69-36.35-40.7-59a290.76,290.76,0,0,1-22.9-50.91c-.41-1.19-.71-2.37-1.07-3.75-.18-.72-.39-1.51-.64-2.41a3.51,3.51,0,0,1,3-4.41l2.39-.28c1.73-.21,3.38-.42,5.09-.47l2.44,0c17.13,0,34.37,5.26,54.24,16.57,19.19,10.93,35,26.94,49.91,50.4,12.51,19.73,21.57,41.35,28.79,59.9,9.74,25,18.57,47.6,28.1,70.33a228.71,228.71,0,0,0,28.11,49.49,21.11,21.11,0,0,1,1.68,2.72c.29.52.62,1.11,1,1.81a3.5,3.5,0,0,1-3,5.27l-.41,0-25.89-3q-5.76-.68-11.52-1.3c-19.54-2.17-39.73-4.42-59.33-9.28-24-6-42.82-13.84-59.11-24.73-27.89-18.64-47-44.79-56.67-77.73C1084.11,180.74,1082.86,145.41,1090.57,107.64Z"/><path class="cls-4" d="M1344.48,2337.84c-11.63-10.25-23.59-21.79-32.31-36.67l-.88-1.51c-5.63-9.6-11.45-19.54-15.9-30-10.16-23.88-19.4-47.42-29.57-73.51-11.22-28.83-24.54-58.94-45.82-83.84-30.33-35.5-65.39-52.76-107.2-52.76-2.94,0-6,.09-9,.26a3.49,3.49,0,0,1-3.55-2.49c-.11-.35-.23-.7-.34-1a19.37,19.37,0,0,1-.86-3.17,275.87,275.87,0,0,1-.62-79.32c.12-.9.26-1.79.41-2.69a36.81,36.81,0,0,0,.63-6,7.29,7.29,0,0,0-6.1-7.54,7.1,7.1,0,0,0-1.38-.14,7.24,7.24,0,0,0-6.63,4.55,30.69,30.69,0,0,0-2.12,8c-4.78,34.2-4,65.66,2.33,96.18.64,3.1.21,6.71-1.35,11.36-1,3.09-2.3,6.12-3.53,9.06a79.27,79.27,0,0,0-4.74,13.6c-8.35,39-8.09,75.17.78,110.56,13,51.63,42.56,87.4,90.52,109.37,21.5,9.86,45.73,16.13,78.54,20.34,7.18.92,14.53,1.72,21.63,2.5,23.85,2.6,48.51,5.29,72.11,13.08a14.79,14.79,0,0,0,5.8.38,7.48,7.48,0,0,0,6.15-3.92,7.2,7.2,0,0,0-.42-7A32.33,32.33,0,0,0,1344.48,2337.84Zm-34.23-7.69a3.5,3.5,0,0,1-2.93,1.59l-.41,0-25.89-3q-5.76-.67-11.52-1.3c-19.54-2.17-39.73-4.42-59.33-9.28-24-6-42.82-13.84-59.11-24.73-27.89-18.64-47-44.79-56.67-77.73-10.28-34.92-11.53-70.25-3.82-108a3.5,3.5,0,0,1,6.39-1.17c.4.63.77,1.17,1.1,1.66a18.73,18.73,0,0,1,1.83,3.11c19.3,44.66,49,87.37,93.49,134.43,7,7.38,12.35,13,17.48,18.23a32,32,0,0,0,5.47,4.66,8.36,8.36,0,0,0,4.52,1.37,7,7,0,0,0,5.11-2.14c2.58-2.69,2.77-6.32.51-9.71a29.24,29.24,0,0,0-3.59-4.08l-3.66-3.77c-16.46-17-33.48-34.58-48.36-53.71-12.11-15.57-27.69-36.35-40.7-59a290.76,290.76,0,0,1-22.9-50.91c-.41-1.19-.71-2.37-1.07-3.75-.18-.72-.39-1.51-.64-2.41a3.51,3.51,0,0,1,3-4.41l2.39-.28c1.73-.21,3.38-.42,5.09-.47l2.4,0c17.16,0,34.41,5.26,54.28,16.57,19.19,10.93,35,26.94,49.91,50.4,12.51,19.73,21.57,41.35,28.79,59.9,9.74,25,18.57,47.6,28.1,70.33a228.71,228.71,0,0,0,28.11,49.49,21.11,21.11,0,0,1,1.68,2.72c.29.52.62,1.11,1,1.81A3.49,3.49,0,0,1,1310.25,2330.15Z"/><path class="cls-4" d="M958.57,454.33a9.22,9.22,0,0,1-2.09-.44c-1.27-.47-2.46-1-3.62-1.49L952,452c-27-11.65-48.39-23.18-67.31-36.28a23.37,23.37,0,0,0-6.7-3.23,7.6,7.6,0,0,0-2.09-.3,6.72,6.72,0,0,0-5.65,3.17,6.89,6.89,0,0,0,.31,8.38,16,16,0,0,0,3.94,3.7L880,431c13.45,8.77,27.35,17.85,42.25,24.42,7,3.11,14.16,6.42,21,9.63,3.11,1.44,6.22,2.9,9.36,4.34a3.52,3.52,0,0,1,2,2.88c1,11.64,6.37,20.93,12.29,30.21,16.52,25.87,37.87,46,63.48,59.81,26.71,14.39,54.21,21.69,81.72,21.69a166.32,166.32,0,0,0,31.14-3c28.83-5.49,55.46-18,81.4-38.33,7.51-5.87,14.93-12.17,22.11-18.26,6.14-5.2,12.49-10.58,18.89-15.71,11.87-9.52,24.21-18.81,36.13-27.8l4.07-3.06c2.88-2.17,4.4-5,4.17-7.78-.21-2.58-1.93-4.84-4.82-6.36a21.86,21.86,0,0,0-8.8-2,126.6,126.6,0,0,1-41.27-8.9c-5.5-2.24-11-4.44-16.55-6.63-10.19-4.06-20.72-8.25-31-12.64A483.11,483.11,0,0,0,1131.29,408c-18.27-4.4-33.46-6.45-47.82-6.45a128.65,128.65,0,0,0-29.06,3.18c-37.84,8.65-67,23.8-89.08,46.32a20.27,20.27,0,0,1-2.44,2.05c-.27.2-.54.39-.78.59a3.46,3.46,0,0,1-2.77.72Zm16.83,24.23a3.49,3.49,0,0,1,3.23-.77l12.94,3.45,18.79,5c35,9.27,72.57,14,111.7,14,7.62,0,15.44-.18,23.25-.53,9-.4,18.08-1.13,26.9-1.83,3.19-.26,6.37-.51,9.56-.75a34.56,34.56,0,0,0,6.58-.92,7.26,7.26,0,0,0,5.45-7.44c-.12-3.61-2.31-6.06-6-6.74a34,34,0,0,0-7.77-.4c-5.53.32-11.17.73-16.62,1.13-10.05.73-20.45,1.48-30.73,1.72a450.91,450.91,0,0,1-145.54-20.71c-.54-.17-1.08-.36-1.86-.64l-1.68-.6a3.49,3.49,0,0,1-1.24-5.86c.88-.81,1.68-1.62,2.45-2.4a38.38,38.38,0,0,1,5.47-4.83c31.66-21.55,62.34-32,93.79-32,4.28,0,8.64.2,13,.59,21.82,2,44.51,7.42,69.35,16.64,16.27,6,32.63,12.6,48.46,18.95,9.49,3.81,19.3,7.74,29,11.52,6.24,2.43,12.6,4.63,19.34,7,3.16,1.09,6.4,2.21,9.75,3.4a3.51,3.51,0,0,1,1.08,6c-5.34,4.48-10.67,9-15.82,13.38-12.4,10.53-24.1,20.48-36.44,30.2-10.9,8.57-22.77,17.44-35.74,24.22-24.48,12.82-49.28,19.33-73.69,19.33h0c-27.39,0-54.92-8.18-81.8-24.32-20.3-12.19-37.13-29.08-51.46-51.65-1.31-2.07-2.42-4.22-3.49-6.29l-.5-1a6.6,6.6,0,0,1-.63-2.57c0-.29-.06-.64-.12-1.07A3.5,3.5,0,0,1,975.4,478.56Z"/><path class="cls-4" d="M1179.31,1830.29c1.42-2.9,2.86-5.79,4.33-8.71l2.51-5a3.45,3.45,0,0,1,3.47-1.92l2.13.18c1.5.13,2.92.25,4.37.47a334.78,334.78,0,0,1,62.32,16.41c3.46,1.25,6.93,2.58,10.3,3.86,4.76,1.83,9.69,3.71,14.57,5.36a8.2,8.2,0,0,0,2.65.45,7.23,7.23,0,0,0,6.58-4.16c1.67-3.5.53-7.29-2.9-9.66a22.51,22.51,0,0,0-5.6-2.86q-7.05-2.31-14.09-4.66c-15.83-5.26-32.2-10.71-48.43-15.51a183.46,183.46,0,0,0-21.11-4.5c-3.12-.54-6.35-1.1-9.48-1.72a3.48,3.48,0,0,1-2.19-1.43c-1.35-1.94-2.59-3.82-3.79-5.64a101.29,101.29,0,0,0-7.26-10.1c-17.73-20.56-36.42-34.18-57.14-41.64a219,219,0,0,0-74.4-13.12,228,228,0,0,0-29.47,1.94C965.13,1735,920.5,1757.11,884,1793.9c-36.23,36.52-60.07,80.88-70.88,131.86a27.45,27.45,0,0,0-.49,7c.22,4.67,2.91,7.46,7.18,7.46a9.36,9.36,0,0,0,1.28-.08,26,26,0,0,0,6.51-2.06l1.38-.56c2.64-1,5.33-2.27,7.93-3.45,5.51-2.51,11.21-5.1,17.28-6.47,16.88-3.83,35-7.36,53.52-7.36,1.57,0,3.15,0,4.68.07,29.39,1,59.13,2.14,87.89,3.27,7.07.28,15.41.56,23.66.56,19.88,0,35.82-1.7,50.16-5.35,31.7-8.07,55.84-21.56,73.81-41.26C1159.84,1864.52,1170.1,1849.06,1179.31,1830.29Zm-39.54,33c-16.2,19.35-37.75,32-67.82,39.94-13.74,3.6-28.42,5.21-47.59,5.21-7.93,0-15.69-.26-24.28-.57-9.43-.35-19-.76-28.29-1.16-20.38-.88-41.45-1.79-62.16-2h-2.08c-21.59,0-44.13,3.58-67,10.65-.67.2-1.28.33-2,.48l-1.21.26a3.44,3.44,0,0,1-.77.09,3.5,3.5,0,0,1-3.44-4.13c.12-.65.2-1.24.29-1.8a21.65,21.65,0,0,1,.75-3.61c10.95-33.32,26.38-62.19,45.85-85.82a220.66,220.66,0,0,1,77.06-59.44,201.23,201.23,0,0,1,86.25-19.56,212,212,0,0,1,35.36,3c14.72,2.5,30.31,5.55,45,12.8,12.28,6.1,24.07,14.84,36,26.73a10.91,10.91,0,0,1,1.79,2.24l.07.11a5.45,5.45,0,0,1,.59,2.31c0,.15,0,.33,0,.53a3.51,3.51,0,0,1-3.78,4l-3.47-.32c-3.26-.29-6.48-.59-9.71-.85-9.34-.76-18.9-1.15-28.41-1.15-31.25,0-63.07,4-97.26,12.27-18.38,4.44-36.06,11.64-53.16,18.61-4.19,1.71-8.39,3.42-12.6,5.09a13.63,13.63,0,0,0-3.13,1.86,7.13,7.13,0,0,0-2.56,8.45,7.61,7.61,0,0,0,8,4.74,27.27,27.27,0,0,0,5.51-1.58l.14,0c3.4-1.24,6.24-2.33,9-3.6,35.05-16.22,75.23-25.89,122.82-29.56,7-.54,14.26-.81,21.56-.81a346.71,346.71,0,0,1,46.32,3.26,22.8,22.8,0,0,1,3.14.74c.47.13,1,.28,1.53.42a3.51,3.51,0,0,1,2.4,4.61c-.22.59-.41,1.15-.6,1.69a33.64,33.64,0,0,1-1.45,3.69C1158.56,1837.5,1149.82,1851.32,1139.77,1863.33Z"/><path class="cls-4" d="M818,1432.59c0,.87,0,1.69,0,2.48,0,1.54,0,3,0,4.4.06,2,.08,4,.09,6a111.05,111.05,0,0,0,.66,13.57c4.15,31.23,16.72,59.3,38.41,85.79,12.68,15.49,28.16,29.77,48.7,44.94a224.45,224.45,0,0,0,104.62,42.35c13.22,1.78,26.79,3,39.91,4.13,9.49.83,19.3,1.69,28.94,2.77,17.44,2,35.94,4.42,58.22,7.78a70.65,70.65,0,0,1,11.84,3.2c2,.68,3.89,1.31,5.82,1.85a14.32,14.32,0,0,0,3.91.6,8.36,8.36,0,0,0,7.16-3.79c2.62-3.58,2.59-7.36-.1-11.55-.61-1-1.31-1.87-2.17-3a130,130,0,0,1-17.62-30q-3.21-7.58-6.38-15.17c-7.52-17.93-15.3-36.48-23.57-54.4-18.8-40.8-41.21-75-68.5-104.48-14.36-15.55-29.71-27.24-46.93-35.76-24.12-11.94-47.08-17.74-70.18-17.74a137.86,137.86,0,0,0-15.43.87c-22.52,2.52-44.21,9.81-66.3,22.28-5,2.81-9.84,6.21-14.54,9.5-1.89,1.32-3.83,2.69-5.79,4a4.42,4.42,0,0,1-3.78,2.07,4.78,4.78,0,0,1-1.54-.25c-23.71-7.94-48.27-11.57-75.61-15.18a63.6,63.6,0,0,0-8.35-.61,40.57,40.57,0,0,0-4.07.19c-3.06.31-5.05,3.28-5.38,5.93a7.17,7.17,0,0,0,4.23,7.68,27.9,27.9,0,0,0,6.29,1.59c3.82.58,7.73,1.11,11.51,1.61,3.2.43,6.39.86,9.58,1.33,16.63,2.46,35.48,5.25,54,11.6A3.5,3.5,0,0,1,818,1432.59Zm15.85,10.5c.06-.75.12-1.57.18-2.52a3.48,3.48,0,0,1,1.5-2.68,3.53,3.53,0,0,1,3-.46c.81.26,1.59.49,2.33.71,1.68.51,3.27,1,4.86,1.59a539.22,539.22,0,0,1,89.74,44.87c46.81,28.93,83.5,56.09,115.45,85.48,2.38,2.2,4.73,4.46,7,6.66l1.74,1.67c.65.63,1.3,1.28,1.94,1.93,1.07,1.09,2.09,2.11,3.16,3,2.6,2.24,5.26,3.43,7.68,3.43a6.81,6.81,0,0,0,5.2-2.44c4.38-4.87-.69-10.65-2.34-12.31-25.35-25.39-54.65-49.37-89.59-73.31-45.23-31-83.65-52.69-120.91-68.25-3.15-1.31-6.32-2.59-9.74-4l-5-2a3.49,3.49,0,0,1-1.07-5.79c.4-.38.73-.72,1-1a11.25,11.25,0,0,1,2.28-1.93c25.83-15.31,51.1-23,77.26-23.46l2.15,0c21.63,0,42.71,5.75,66.34,18.1,13.53,7.07,26.1,17,38.43,30.25,26.31,28.33,48,61.48,66.32,101.36,8.67,18.86,16.92,38.27,24.89,57q5,11.81,10.07,23.6a6.61,6.61,0,0,1,.48,2.6c0,.25,0,.55,0,.9a3.49,3.49,0,0,1-3.48,3.82l-.45,0-3.08-.41c-1.9-.26-3.68-.51-5.47-.7q-51.64-5.43-103.32-10.83c-42.12-4.4-79.72-19.2-111.76-44-18.39-14.23-32.06-27.2-43-40.83-18.23-22.65-29.43-47.88-33.3-75a86.3,86.3,0,0,1-.64-9.26l-.06-1.73A38.77,38.77,0,0,1,833.88,1443.09Z"/><path class="cls-4" d="M985.76,907.65c2.8,21.79,9,43.84,19.41,69.41,16.44,40.29,21.36,80.65,14.61,120-1.1,6.44,2.32,8.51,3.44,9.19a7.55,7.55,0,0,0,3.94,1.2,10.37,10.37,0,0,0,6.28-2.66c5.22-4.16,10.57-8.32,15.75-12.35,12-9.36,24.47-19,36-29.3,37.21-33.25,65-71.23,82.58-112.9,12.58-29.83,16.83-59.88,12.64-89.32-3.43-24.12-13.44-47.31-31.47-73-17.27-24.56-40.06-45.47-71.71-65.77A34.56,34.56,0,0,1,1064.84,709a257.11,257.11,0,0,0-46.75-62.33l-.44-.44a32,32,0,0,0-4.07-3.58,9,9,0,0,0-5.07-1.74,6.94,6.94,0,0,0-5,2.19c-2.47,2.52-2.65,6.42-.44,9.71a43.7,43.7,0,0,0,5.68,6.45c17.84,17.7,32.62,38,45.2,62.08a3.44,3.44,0,0,1,.25,2.63c-.11.35-.18.63-.23.85a6.23,6.23,0,0,1-.8,2c-.8,1.24-1.64,2.5-2.48,3.75s-1.78,2.65-2.64,4c-3.5,5.44-7.12,10.92-10.62,16.21-13.62,20.59-27.7,41.87-37.44,65.12C986.58,847.84,981.94,877.87,985.76,907.65Zm26.73-81.6c9.59-24.24,24-45.94,38-66.93,2.48-3.74,5-7.48,7.43-11.24a6.85,6.85,0,0,1,1.86-1.79c.31-.24.72-.54,1.25-1a3.5,3.5,0,0,1,5.55,1.67c.8,2.55,1.63,5.07,2.44,7.5,1.8,5.42,3.5,10.54,4.72,15.91a352.24,352.24,0,0,1,7.43,112.9,399.86,399.86,0,0,1-17.1,82.66,21.44,21.44,0,0,0-.7,8.84c.11.94.44,3.8,5.21,4.72a6.47,6.47,0,0,0,7.06-2.63,24.77,24.77,0,0,0,3.31-6.74c13.94-43,20.45-86.67,19.34-129.85a361.8,361.8,0,0,0-10.89-79.52,11.1,11.1,0,0,1-.3-3.06,3.5,3.5,0,0,1,3.89-5.24c.24.06.5.14.74.22a5,5,0,0,1,.53.23,6.28,6.28,0,0,1,2.82,1.21c31.52,25.16,52.53,53.44,64.21,86.46,11.29,32,9.68,65.1-4.92,101.32-16.78,41.63-44.25,78.88-84,113.89-5.47,4.82-11.13,9.38-17.13,14.22-2.8,2.26-5.68,4.58-8.65,7a3.51,3.51,0,0,1-2.22.79,3.62,3.62,0,0,1-1.33-.26,3.5,3.5,0,0,1-2.15-2.88c-.11-1.08-.23-2-.34-2.81a25.08,25.08,0,0,1-.34-4.48c1.28-31.63-5.16-63.45-20.25-100.15a240.56,240.56,0,0,1-16.51-60.37C997.91,880.18,1001.54,853.8,1012.49,826.05Z"/><path class="cls-4" d="M722.65,322.91c-13.08,19.13-21.88,41.86-26.91,69.48A88.48,88.48,0,0,0,694,408.84c0,4.18,3.14,6,6,6.36a7.55,7.55,0,0,0,1.06.07c3.33,0,5.92-1.95,7.11-5.34a35,35,0,0,0,1.14-4.74l.25-1.27c.5-2.49,1-5,1.46-7.49.89-4.63,1.8-9.42,2.88-14.13,4.62-20.2,12.6-38.22,23.72-53.56a3.51,3.51,0,0,1,1.92-1.33c.2-.05.38-.11.53-.16a5.94,5.94,0,0,1,2-.38h.22a26.55,26.55,0,0,1,3.8.42,234.48,234.48,0,0,0,43.21,4.13,211.49,211.49,0,0,0,74.83-13.64c56-21.06,90.68-60.59,103.2-117.47,3.54-16.09,5.89-32.78,8.16-48.93,1.12-8,2.29-16.34,3.59-24.49l.43-2.67c3.14-19.82,6.39-40.31,19.2-57.78,0-.06.16-.29.24-.46l.12-.23a7.13,7.13,0,0,0-.72-8.17,7,7,0,0,0-5.61-3,7.87,7.87,0,0,0-2,.27,51.32,51.32,0,0,0-9.29,3.79l-1.06.51c-4.14,2-8.34,4.05-12.39,6.06-6.9,3.42-14,7-21.23,10.14-16.63,7.36-34.26,12.24-51.31,17-5.34,1.48-10.87,3-16.27,4.59-26.24,7.67-49.75,14.95-71.68,26.38-22.25,11.6-38.5,23.64-51.14,37.88-26.83,30.22-40.11,57.13-43.07,87.24-2,20.7,1.3,40.71,10.18,61.19C724.92,313.09,726.2,317.76,722.65,322.91Zm6.15-72.42c1.91-18.71,8.34-36.43,19.64-54.15,21.92-34.36,54.31-58.25,99-73,13.09-4.32,26.52-8.24,39.5-12,10.26-3,20.87-6.09,31.21-9.36,9.44-3,18.93-6.51,28.11-9.92,4.14-1.54,8.28-3.08,12.43-4.58,1.38-.5,2.74-1,4.28-1.59l2.34-.89a3.5,3.5,0,0,1,4.73,3.46c0,.55,0,1-.06,1.52a22.86,22.86,0,0,1-.24,3.2q-1.89,11.35-3.81,22.71c-2.22,13.19-4.53,26.82-6.68,40.25-.62,3.85-1.21,7.79-1.77,11.59-2.41,16.24-4.9,33-10.78,48.93-14.78,40-42.84,68.57-83.39,84.91a199.55,199.55,0,0,1-74.88,14.05h0a253.44,253.44,0,0,1-29.57-1.8,12.06,12.06,0,0,1-2.55-.7c-.44-.16-1-.35-1.64-.57A3.5,3.5,0,0,1,753,307c.88-1.13,1.7-2.2,2.47-3.22,1.59-2.08,3.1-4.05,4.67-5.92,19.34-23,42.44-45.72,70.61-69.53,16.39-13.87,33.45-27.45,49.94-40.59,7.77-6.19,15.81-12.58,23.66-18.92a24.59,24.59,0,0,0,4.56-4.39,7.19,7.19,0,0,0-5.68-11.62,8.3,8.3,0,0,0-3.31.72,26.13,26.13,0,0,0-5,3c-53.93,40.13-98,78.67-134.78,117.83-3.5,3.73-6.89,7.74-10.17,11.63-1.66,2-3.32,3.93-5,5.88-1.11,1.28-2.25,2.55-3.74,4.21l-.69.78a3.5,3.5,0,0,1-5.93-1.23C729.16,279.32,727.32,265,728.8,250.49Z"/><path class="cls-4" d="M916.38,648.93c-10.51-37.18-30-72.86-59.54-109-4.92-6-10-12.09-14.9-18-14.47-17.3-29.42-35.2-42.46-54.23a19.39,19.39,0,0,0-2.89-3.45,9.87,9.87,0,0,0-6.61-2.78c-3.77,0-7,2.6-8.34,6.79a24,24,0,0,0-.76,3.55c-.13.84-.28,1.71-.47,2.59-.85,3.87-1.62,7.85-2.36,11.7-1.67,8.68-3.4,17.66-6.28,26.23-7.54,22.44-15.76,45-23.71,66.92q-4.71,12.94-9.38,25.88c-12,33.34-23.32,69.59-25.28,108.77C710.75,766.38,725.47,814,757.13,855.3c14.76,19.28,30.52,32.51,48.19,40.44,2.32,1,4.72,2,6.84,2.85l2.61,1a3.53,3.53,0,0,1,2.09,2.49c.85,3.91,1.66,7.74,2.46,11.52,1.78,8.38,3.46,16.3,5.42,24.23C828.2,952,835,965.1,841.64,977.81c1.48,2.86,3,5.72,4.42,8.59s4,4,7.56,3.48c3-.46,4.72-2.11,5.85-5.71,1-3.2-.15-5.88-2.1-10l-.08-.17c-1.47-3.09-3-6.23-4.57-9.26-3-6-6.11-12.17-8.68-18.54A148.77,148.77,0,0,1,833.55,900a3.46,3.46,0,0,1,.92-2.6c2.11-2.3,4.18-4.5,6.21-6.66,4.19-4.47,8.15-8.69,11.9-13.07,19.07-22.34,40.43-49.47,54.32-81.32C927.49,749.13,930.67,699.54,916.38,648.93ZM848,859l-1.58,2c-1,1.28-2.16,2.41-3.25,3.51-.44.45-.88.89-1.31,1.34a3.5,3.5,0,0,1-3.68.89l-.7-.26-.66-.23a3.49,3.49,0,0,1-2.34-3.67c.27-2.6.53-5.21.79-7.81.53-5.37,1.09-10.91,1.75-16.37,5.43-44.72,10.39-97.77,6-152.19-1.61-20.06-4.72-46.27-14.64-71.11a128.22,128.22,0,0,0-8.36-16.79,13.84,13.84,0,0,0-4.88-4.54,5.34,5.34,0,0,0-2.75-.8,7.74,7.74,0,0,0-4.51,1.84,6.82,6.82,0,0,0-2.49,6.84,10.87,10.87,0,0,0,1.28,3.77c11,19.15,15.09,40.73,18,59.46,6.09,38.93,4.68,77.34,2.76,106.46-1.13,17.23-3,34.67-4.78,51.53-.92,8.57-1.86,17.43-2.7,26.14-.61,6.44-1.11,12.85-1.63,19.63-.26,3.35-.53,6.76-.81,10.26a3.49,3.49,0,0,1-3.49,3.22,3.6,3.6,0,0,1-1.53-.35c-1-.51-2.1-.95-3.12-1.39a27.72,27.72,0,0,1-6.79-3.65c-2-1.6-4.07-3.21-6.07-4.76-6.6-5.11-13.42-10.39-19.08-16.75-33.9-38.1-50.28-84-48.7-136.31.92-30.19,7.57-61.1,21.58-100.22,5.05-14.12,10.31-28.43,15.4-42.27,5.37-14.61,10.92-29.73,16.24-44.64,2.76-7.72,5.1-15.49,7.57-23.72,1.15-3.81,2.3-7.66,3.52-11.55a3.5,3.5,0,0,1,5.66-1.58c.32.29.65.55,1,.82a18,18,0,0,1,2.59,2.46l3.72,4.48c13.42,16.19,27.28,32.93,40.83,49.48,20.35,24.89,37.05,53.81,49.64,86,11.15,28.47,15,60.32,11.42,94.66-3.94,38-19.14,73.75-46.48,109.38C857.1,847.89,852.49,853.56,848,859Z"/><path class="cls-4" d="M581.78,1296.22a11.47,11.47,0,0,0,3.83-.57,20.55,20.55,0,0,1,2.26-.58c3.27-.56,6.57-1.17,9.77-1.76,7.58-1.4,15.41-2.85,23.25-3.71,10.08-1.1,20.33-2,30.25-2.83,12.92-1.11,26.27-2.26,39.31-3.9,42.82-5.37,79.23-17.6,111.32-37.38,47.4-29.22,72.74-71.67,75.29-126.15a3.63,3.63,0,0,1,.34-1.34,39.21,39.21,0,0,1,4.31-6.7,126.41,126.41,0,0,0,19.44-37.85,33.87,33.87,0,0,0,1.65-7c.35-3.8-1.82-7.38-5-8.32-3.83-1.14-7.27.52-9.17,4.34a42,42,0,0,0-2.14,5.75l-.4,1.26c-4.16,12.88-9.72,23.51-17,32.48a3.49,3.49,0,0,1-3.22,1.26c-5.53-.8-11-1.62-16.3-2.44-11.72-1.78-22.79-3.47-34-4.75a287.75,287.75,0,0,0-32.74-2,215.05,215.05,0,0,0-59.68,8c-54,15.35-90.89,49.24-109.57,100.73-2.47,6.8-4.91,13.75-7.28,20.47-3.07,8.71-6.24,17.72-9.51,26.54-5.34,14.45-11.5,24.38-20,32.21-4.85,4.5-3.91,7.94-2.77,10.14C575.29,1294.74,578.14,1296.23,581.78,1296.22Zm24.15-27.89c3.13-8.56,6.31-17.14,9.48-25.73,4.21-11.38,8.56-23.15,12.78-34.75,16.86-46.3,49.85-76.74,98.06-90.47a205.45,205.45,0,0,1,57-7.55,287.45,287.45,0,0,1,31.53,1.81c7.14.78,14.27,1.84,21.82,3,3.68.55,7.48,1.11,11.47,1.67a3.51,3.51,0,0,1,1.79,6.13c-1.14,1-2.11,1.83-3,2.59-1.64,1.45-3,2.59-4.39,3.68-24.9,18.69-52.92,31.82-74.55,41.16-9.27,4-18.74,8-27.89,11.76-8.56,3.57-17.41,7.25-26.06,11-16.57,7.13-30.39,15.16-42.27,24.55a29.55,29.55,0,0,0-5.86,5.78,7.47,7.47,0,0,0,.45,9.19,7.18,7.18,0,0,0,5.35,2.32,9,9,0,0,0,3.92-1,11.29,11.29,0,0,0,2.13-1.38c17.81-14.77,38.67-24,60.28-32.9l11-4.5c21.54-8.8,43.82-17.91,64.39-29.5,8.11-4.57,16.16-9.63,24-14.52q5.54-3.5,11.11-6.93c.78-.48,1.58-1,2.66-1.58l2.38-1.39a3.5,3.5,0,0,1,5.17,3.87c-.32,1.28-.6,2.44-.86,3.51-.53,2.2-1,4.1-1.57,6-10.22,33-31.43,59.4-63,78.52-30,18.17-63.45,29.41-102.2,34.37-18.52,2.38-37.41,4-55.69,5.49-7.86.66-16,1.34-24,2.08h-.39a5.48,5.48,0,0,1-2-.42l-.15-.06a3.43,3.43,0,0,1-2.23-1.94l-.05-.09A4.28,4.28,0,0,1,605.93,1268.33Z"/><path class="cls-4" d="M819,1717.6a7.14,7.14,0,0,0-4-8.34,24.94,24.94,0,0,0-4.28-1.44c-.93-.25-1.88-.51-2.85-.83-3-1-6-1.94-9-2.87-7.28-2.29-14.81-4.66-22-7.62a71.29,71.29,0,0,1-12.59-7.23c-1.48-1-2.88-1.93-4.17-2.72a3.5,3.5,0,0,1-1.55-4c1.23-4.31,2.49-8.46,3.7-12.47,2.56-8.44,5-16.41,6.71-24.47,6.29-29.13,6.51-53.16.69-75.61-7.84-30.3-21.4-55.08-41.43-75.75-14.06-14.53-30.82-26.7-52.74-38.31-15.11-8-30.36-16.31-45.11-24.36q-10.82-5.91-21.64-11.78c-15.56-8.44-28.61-20.54-39.91-37a33.25,33.25,0,0,0-5.35-6.44,8.45,8.45,0,0,0-5.52-2.21c-3.24,0-6,2.16-7.12,5.64-.69,2.08-.57,4.83-.45,7.5l0,.4c.1,2.71.34,5.49.57,8.18a110.28,110.28,0,0,1,.57,14.71c-.69,13.26-1.89,27.21-3.67,42.67-3.83,33.21-4.53,58.8-2.27,83,4.21,44.89,20.5,82.22,49.8,114.14,23.85,26,53.12,42.52,87,49.14a122.58,122.58,0,0,0,23.39,2.2,169.71,169.71,0,0,0,39.32-5,3.72,3.72,0,0,1,.81-.09,3.66,3.66,0,0,1,1.58.37c.36.19.67.33.94.45a9,9,0,0,1,1.95,1.1c14.39,11.14,31.63,18.66,54.24,23.63a30.23,30.23,0,0,0,7.67.82A6.79,6.79,0,0,0,819,1717.6Zm-65.72-73.26c-1.16,5.32-2.63,10.57-4.19,16.13-.75,2.67-1.53,5.44-2.31,8.37a3.5,3.5,0,0,1-5.62,1.78c-1-.87-2-1.61-2.79-2.29-1.69-1.37-3-2.45-4.34-3.7-20.32-19.53-39.53-42.33-58.73-69.69a537.51,537.51,0,0,1-59.25-109.32,23,23,0,0,0-3.05-5.55,7.13,7.13,0,0,0-8.88-2.25,7.4,7.4,0,0,0-4.08,8.29,39.32,39.32,0,0,0,2.22,7,555.43,555.43,0,0,0,52.41,99.28c21.57,32.42,43.89,59.65,68.25,83.24a15.38,15.38,0,0,1,1.62,1.91c.33.42.73,1,1.27,1.63a3.48,3.48,0,0,1,.49,3.56,3.52,3.52,0,0,1-2.92,2.11c-1.73.14-3.31.31-4.8.46-3.09.32-5.76.59-8.54.62h-1.72c-39.6,0-74.4-16.23-103.46-48.23-26.88-29.61-41.42-66-44.45-111.25-1.68-25.21.71-50.24,3.08-71.71,1-8.73,1.86-17.62,2.73-26.22l1.17-11.46a3.51,3.51,0,0,1,2.76-3.07l.18,0a5.28,5.28,0,0,1,1.67-.31,3.73,3.73,0,0,1,2.5.94c16.11,13.88,35.2,24.14,53.66,34l3.56,1.92c5.62,3,11.4,6,17,9,11.29,5.89,23,12,34.13,18.6,39.71,23.54,64.31,58.1,73.12,102.72C759.65,1599.33,758.83,1618.93,753.31,1644.34Z"/><path class="cls-4" d="M499.29,193.36a28.8,28.8,0,0,0-3.73,4.55,7.65,7.65,0,0,0,.8,9.25,7.33,7.33,0,0,0,5.19,2.09,7.61,7.61,0,0,0,4-1.14,28.64,28.64,0,0,0,5.84-5c10.9-11.57,21.55-23,32.83-35q6.59-7,13.29-14.19a3.46,3.46,0,0,1,1.34-.89c1.21-.45,2.49-.88,3.81-1.33a66.43,66.43,0,0,0,8.32-3.2l4.5-2.21c10.62-5.22,21.6-10.61,32-16.5,31.82-18,58.15-40.25,78.25-66.2C710.21,32,723.92-2,726.5-37.34c2.51-34.31-.68-69.62-9.73-107.95-4.31-18.25-6.66-33.75-4.1-50.1a20.39,20.39,0,0,0,0-5.63c-.49-3.88-3.28-7.22-6.62-8a9.6,9.6,0,0,0-2.19-.26c-2.86,0-5.14,1.5-7,4.59-11.54,19.25-27.29,34.39-42.59,47.89S623-130.13,608.9-118.45c-25.78,21.3-46.49,44-63.31,69.3A166.74,166.74,0,0,0,521.75,6.19c-4.78,21-5.16,43.44-1.24,72.93,2.52,19,9.13,37,20.19,55,.81,1.32,1.53,2.62,2.37,4.13.4.72.82,1.49,1.3,2.33a3.51,3.51,0,0,1-.4,4q-2.82,3.28-5.59,6.56c-4.13,4.87-8.4,9.91-12.81,14.69-5.5,6-11.22,11.86-16.75,17.58C505.64,186.75,502.45,190,499.29,193.36ZM537.74,86.29c-5.68-30.35-5.75-55.4-.25-78.83C541.32-8.82,548-24.27,558-39.79c20.74-32.37,48.54-57.09,75.5-79,19-15.42,37.41-30.71,53.56-48.21a18,18,0,0,1,2.08-1.86c.37-.3.8-.65,1.3-1.08a3.51,3.51,0,0,1,3.42-.63,3.46,3.46,0,0,1,2.28,2.62c.42,2.09.78,4.12,1.13,6.1.73,4.08,1.42,7.93,2.43,11.63,7.25,26.74,11.05,55.68,12,91.1,1.17,46-14.87,87.72-47.7,124.17-20.11,22.33-43.81,40.49-72.45,55.52a30.71,30.71,0,0,1-3.45,1.49l-.56.22a3.82,3.82,0,0,1-1.33.25,4.2,4.2,0,0,1-1.95-.52,3.5,3.5,0,0,1-2.05-2.63,4.36,4.36,0,0,1,.36-3.52c12.13-19.36,21.68-40.51,30.92-61,2.84-6.28,5.78-12.79,8.75-19.15,16-34.24,26.78-63.56,34-92.28.17-.7.36-1.4.54-2.1a67.48,67.48,0,0,0,1.51-6.64c.5-3.16.46-8.67-5.32-10.13a9.12,9.12,0,0,0-2.09-.26c-4.5,0-6.47,4.15-7.25,6.62-2.2,7.05-4.2,14.33-6.12,21.38l-.77,2.82c-8.31,30.27-21.6,59-34.44,86.73l-1,2.12c-8.37,18.08-17.38,36.41-26.77,54.48a169.23,169.23,0,0,1-10.39,16.65c-1.77,2.61-3.59,5.3-5.41,8.12a3.49,3.49,0,0,1-2.94,1.6h0a3.5,3.5,0,0,1-2.94-1.6C545,111.1,540.18,99.35,537.74,86.29Z"/><path class="cls-4" d="M712.67,1804.61a20.39,20.39,0,0,0,0-5.63c-.49-3.87-3.28-7.22-6.63-8a10.48,10.48,0,0,0-2.17-.25c-2.86,0-5.15,1.51-7,4.6-11.54,19.25-27.29,34.39-42.59,47.89s-31.23,26.63-45.36,38.31c-25.76,21.27-46.47,43.94-63.31,69.3a166.74,166.74,0,0,0-23.84,55.34c-4.78,21-5.16,43.44-1.24,72.93,2.52,19,9.13,37,20.19,55.05.81,1.32,1.53,2.62,2.37,4.13.4.72.82,1.49,1.3,2.33a3.51,3.51,0,0,1-.4,4q-2.82,3.28-5.59,6.56c-4.13,4.87-8.4,9.91-12.81,14.69-5.5,5.95-11.22,11.86-16.75,17.58-3.18,3.29-6.37,6.58-9.53,9.9a28.8,28.8,0,0,0-3.73,4.55,7.65,7.65,0,0,0,.8,9.25,7.33,7.33,0,0,0,5.19,2.09,7.61,7.61,0,0,0,4-1.14,28.64,28.64,0,0,0,5.84-5c10.9-11.57,21.55-23,32.83-35q6.59-7,13.29-14.19a3.46,3.46,0,0,1,1.34-.89c1.21-.45,2.49-.88,3.81-1.33a66.43,66.43,0,0,0,8.32-3.2l4.5-2.21c10.62-5.22,21.6-10.61,32-16.5,31.82-18,58.15-40.25,78.25-66.2,24.47-31.58,38.18-65.53,40.76-100.91,2.5-34.3-.68-69.61-9.73-108C712.46,1836.47,710.11,1821,712.67,1804.61Zm-48.73,260.47c-20.11,22.33-43.81,40.49-72.45,55.52a30.71,30.71,0,0,1-3.45,1.49l-.56.22a3.82,3.82,0,0,1-1.33.25,4.2,4.2,0,0,1-1.95-.52,3.5,3.5,0,0,1-2.05-2.63,4.36,4.36,0,0,1,.36-3.52c12.13-19.36,21.68-40.51,30.92-61,2.84-6.28,5.78-12.79,8.75-19.15,16-34.24,26.78-63.56,34-92.28.17-.7.36-1.4.54-2.1a67.48,67.48,0,0,0,1.51-6.64c.5-3.16.46-8.67-5.32-10.11a8.32,8.32,0,0,0-2.1-.28c-4.5,0-6.47,4.15-7.24,6.62-2.2,7-4.2,14.33-6.12,21.38l-.77,2.82c-8.31,30.27-21.6,59-34.44,86.73l-1,2.12c-8.37,18.08-17.38,36.41-26.77,54.48a169.23,169.23,0,0,1-10.39,16.65c-1.77,2.61-3.59,5.3-5.41,8.12a3.49,3.49,0,0,1-2.94,1.6h0a3.5,3.5,0,0,1-2.94-1.6c-7.87-12.17-12.67-23.92-15.11-37-5.68-30.35-5.75-55.4-.25-78.83,3.83-16.27,10.53-31.73,20.49-47.26,20.74-32.37,48.54-57.08,75.5-79,19-15.42,37.41-30.71,53.56-48.21a18,18,0,0,1,2.08-1.86c.37-.3.8-.65,1.3-1.08a3.51,3.51,0,0,1,3.42-.63,3.46,3.46,0,0,1,2.28,2.62c.42,2.09.78,4.12,1.13,6.1.73,4.08,1.42,7.93,2.43,11.63,7.25,26.75,11.05,55.69,12,91.1C712.81,1986.86,696.77,2028.63,663.94,2065.08Z"/><path class="cls-4" d="M442,689.68c-4-4.22-8-8.55-11.89-12.74-5-5.42-10.19-11-15.37-16.4-2.72-2.83-5-4.46-6.91-5a6.89,6.89,0,0,0-7.45,2.4,11.05,11.05,0,0,0-1.77,9.36c4.94,22.32,6,45.23,7,67.38l.24,5.36c1.42,31.12,3.66,67.93,9.52,105,5.54,35,14.92,65.29,28.67,92.62,12.26,24.38,30,43.82,54.08,59.42,27,17.46,58.68,25.79,99.69,26.22l2.68,0c7.88,0,14.31-.65,20-3.78a3.44,3.44,0,0,1,1.68-.43,3.57,3.57,0,0,1,1.79.49c20.9,12.47,41.89,20.36,64.18,24.12l2.5.42c5.57,1,11.33,1.94,16.94,2.35s9.81-2.53,10.17-7.09c.14-1.73.55-7-8.42-8.32l-5.91-.86c-3.47-.5-7.06-1-10.6-1.59a161.3,161.3,0,0,1-58.11-20.9,3.51,3.51,0,0,1-1.65-3.61c.53-3,1.09-5.93,1.63-8.83,1.16-6.12,2.26-11.91,3-17.77,3.56-26.81,1-53.36-1.53-73.49-4.49-34.89-16-66.26-34.07-93.23-14.09-21-33.64-39.14-61.51-57.12-13.65-8.8-28.25-16.77-42.37-24.47-4.31-2.35-8.61-4.69-12.9-7.07C467.52,712.27,453.35,701.65,442,689.68Zm46.31,51.76c7.13,3.9,14.5,7.93,21.79,11.8,18.37,9.75,36,22.13,54,37.86a153.23,153.23,0,0,1,39.46,54c18.32,41.65,24,87.27,17.27,139.47a25.48,25.48,0,0,1-1,4.06c-.18.63-.38,1.3-.58,2.05a3.5,3.5,0,0,1-5.35,2l-1.79-1.19c-1.13-.74-2.11-1.39-3.08-2.16-18.68-14.72-35.5-33.34-51.43-56.9-34.28-50.76-56.63-91.81-72.44-133.1-.56-1.45-1-2.92-1.51-4.34a40.83,40.83,0,0,0-3-7.56,14.62,14.62,0,0,0-5.69-5.82,5.85,5.85,0,0,0-2.56-.59,6.24,6.24,0,0,0-6.22,5.67A26.44,26.44,0,0,0,467.85,797a408.17,408.17,0,0,0,27.7,62.7c19.81,36.82,37.79,66,56.59,91.94A245.52,245.52,0,0,0,592.88,996c1.1.93,2.12,1.89,3.2,2.91.49.47,1,1,1.55,1.45A3.5,3.5,0,0,1,597,1006a5.24,5.24,0,0,0-.55.37,5.1,5.1,0,0,1-3.05,1.15h-.11c-35.48-1-62.69-8.21-85.64-22.74-22.38-14.19-38.76-32.08-50.09-54.67-13.18-26.3-22.07-56.52-28-95.09-4.76-31.13-6.4-62.92-8-93.67q-.54-10.41-1.11-20.82c-.27-4.63-.62-9.34-1-13.9-.18-2.31-.35-4.63-.51-6.94a3.5,3.5,0,0,1,2-3.42l1.24-.58a3.5,3.5,0,0,1,3.84.6c.56.52,1.13,1,1.7,1.53,1.2,1.06,2.45,2.17,3.63,3.38,12.74,13.18,27.76,24.4,45.94,34.3Q482.89,738.44,488.35,741.44Z"/><path class="cls-4" d="M569.49,345.44a25.35,25.35,0,0,1,.87-3q5.25-14,10.52-28t10.51-28l.51-1.32a32.39,32.39,0,0,0,1.66-5.06,7.26,7.26,0,0,0-3.51-8.07,7.35,7.35,0,0,0-3.35-.79,7.64,7.64,0,0,0-5.75,2.53,21,21,0,0,0-3.44,5.82c-1.83,4.74-3.7,9.47-5.57,14.2-5.36,13.56-10.91,27.58-15.45,41.61-3.93,12.1-9.37,20-18.19,26.43-21.2,15.43-37,37.32-51.33,71a137.94,137.94,0,0,0-11.11,53c-.34,41.94,14,80.41,42.52,114.34,13.81,16.42,31.39,30.55,57,45.81,7.72,4.61,15.75,9,23.51,13.34,16.38,9.06,33.31,18.43,48.69,30a6.54,6.54,0,0,0,.73.48c4.39,2.54,7.5,2.72,10.53.45,3.87-2.89,3.77-7.12,3-10.16a79.83,79.83,0,0,0-5.09-13.19l-.2-.44c-9-19.84-13-39.73-12.12-59.14.76-15.53,2.54-30.62,4.19-43.34,4.08-31.61,7.84-68.4.68-105-8.37-42.67-28.2-74.55-60.64-97.45-3.62-2.56-7.53-4.8-11.67-7.16-2-1.17-4.14-2.37-6.27-3.65a3.51,3.51,0,0,1-1.58-3.93C569.27,346.32,569.38,345.87,569.49,345.44ZM597.55,389c18.87,20.38,31,44.19,36,70.78,4.68,24.66,5.29,51.26,1.87,81.3-.77,6.73-1.6,13.57-2.4,20.18-1.39,11.36-2.82,23.11-3.95,34.67a146.81,146.81,0,0,0,4.25,51.62c.35,1.32.59,2.6.9,4.24.15.8.32,1.69.53,2.71a3.5,3.5,0,0,1-5.09,3.78q-2.43-1.31-4.6-2.44c-2.76-1.46-5.37-2.84-7.89-4.28q-6.5-3.74-13-7.42c-11.13-6.32-22.63-12.86-33.73-19.7-27-16.67-47.61-38.63-61.2-65.26-22.34-43.83-23.9-86.91-4.62-128.05,6-12.74,14.48-29.13,27.39-42.83,1.12-1.19,2.28-2.27,3.75-3.64.76-.71,1.61-1.5,2.58-2.43a3.5,3.5,0,0,1,5.9,2.87c-.24,2.5-.48,4.84-.71,7.07-.51,4.94-.95,9.21-1.29,13.53-3,38.1-.25,68.67,8.73,96.2,5.49,16.87,12.09,33.75,18.47,50.06,2.42,6.19,4.92,12.58,7.33,18.89a12.15,12.15,0,0,0,2.92,4.14,6.69,6.69,0,0,0,7.89,1.43c2-.85,4.3-2.58,4.14-6a28.35,28.35,0,0,0-2-8.52c-2.51-6.63-5.14-13.35-7.69-19.86-4.38-11.18-8.9-22.74-13-34.28A221.74,221.74,0,0,1,557,426.59c.48-14.53,1.53-33.67,5.39-52.87.13-.62.28-1.2.5-2.08.12-.47.27-1,.44-1.74a3.51,3.51,0,0,1,4.9-2.31A94.12,94.12,0,0,1,597.55,389Z"/><path class="cls-4" d="M570.15,1129.34c4.18-2,6-5.52,4.73-9.52a6.83,6.83,0,0,0-6.82-4.88,9.69,9.69,0,0,0-2.34.3,56.31,56.31,0,0,0-13.22,5.44,423.55,423.55,0,0,0-57.31,37.71c-1.6,1.25-3.25,2.46-4.84,3.62l-2.15,1.57a3.48,3.48,0,0,1-2.61.65,3.54,3.54,0,0,1-2.06-1.1c-3.64-.13-7.3-.3-10.86-.46-6.59-.3-13.4-.62-20-.62-2.47,0-4.74,0-7,.13-37.25,1.44-70.05,16-97.47,43.16-31.11,30.86-47.07,69.76-48.78,118.93-1.43,40.88,5.08,81.51,19.9,124.19a42.21,42.21,0,0,0,3.43,7.84A7,7,0,0,0,330,1460c2.88-.32,4.7-1.91,6.5-5.64l.37-.78c1.95-4.06,4.17-8.66,7.78-11.87,12.14-10.77,25.31-22,42.7-36.26,6.38-5.25,12.95-10.44,19.31-15.47,9.89-7.8,20.11-15.88,29.73-24.25,16.62-14.45,29.28-33.35,38.7-57.78a173.17,173.17,0,0,0,11.51-65.79c-.3-16.54-.64-35.29,2.87-53.82a17.54,17.54,0,0,1,6.93-11.43C517.54,1160.72,542.41,1142.33,570.15,1129.34Zm-106,162.19c-7.78,26.54-21.51,48.44-40.8,65.1-9.22,8-18.95,15.59-28.35,23-5.39,4.22-11,8.59-16.36,13-9.62,7.79-19.32,15.82-28.7,23.59l-9.3,7.7c-1.18,1-2.34,2-3.8,3.35-.73.66-1.52,1.38-2.43,2.19a3.5,3.5,0,0,1-2.33.89,3.31,3.31,0,0,1-1-.16,3.48,3.48,0,0,1-2.37-2.5c-.72-2.92-1.43-5.72-2.13-8.46-1.49-5.82-2.89-11.31-4.06-16.9-8.25-39.49-9.78-72.26-4.82-103.15,7.67-47.73,32.61-83.69,74.13-106.89,17.84-10,37.91-14.61,63.16-14.61,1.85,0,3.77,0,5.69.07a3.5,3.5,0,0,1,2.35,6l-2.46,2.43c-1.28,1.28-2.39,2.39-3.56,3.42a394.11,394.11,0,0,0-56.58,60.82c-19.39,26-33.18,51-42.17,76.28a38.06,38.06,0,0,0-2,7,7.49,7.49,0,0,0,4.07,7.83,7.24,7.24,0,0,0,2.91.59,7.4,7.4,0,0,0,6-2.91,29.32,29.32,0,0,0,3.41-6.83c16.6-45,44.64-84.88,88.24-125.4a25.17,25.17,0,0,1,2.39-2,6.72,6.72,0,0,1,1.83-.86c.22-.08.5-.17.85-.31a3.51,3.51,0,0,1,4.75,3.27c0,4.69,0,9.32,0,13.93,0,9.94,0,19.34,0,28.92C470.81,1262.73,468.72,1276,464.16,1291.53Z"/><path class="cls-4" d="M224.66,36.19a16.46,16.46,0,0,0,4.93-.86q9.45-3,18.91-6c14.79-4.64,30.08-9.44,44.92-14.64,30.33-10.64,62.37-22.45,91.45-39.48C417-43.58,440.28-62.41,458-84c16-19.46,25.39-35.9,30.41-53.31,6.74-23.37,7.41-48.07,2-73.41-4.76-22.4-10.46-40.45-22.77-55.77a9.55,9.55,0,0,1-1.54-3.11q-.12-.4-.27-.78a3.48,3.48,0,0,1-.15-2.25c7.66-28.56,10.64-52.48,9.4-75.27a28,28,0,0,0-1.59-8.6c-1.1-2.78-3.38-4.12-6.66-4-3.1.12-5.12,1.52-6,4.16a32.32,32.32,0,0,0-1.37,8.77c-.21,4.07-.31,8.23-.4,12.26-.18,7.37-.36,15-1.19,22.5-.86,7.81-2.5,15.58-4.07,23.11-.67,3.2-1.37,6.52-2,9.78a3.5,3.5,0,0,1-3.44,2.84c-2.29,0-4.38-.05-6.41-.09-1.76,0-3.43-.07-5.06-.07-2.19,0-4,.07-5.61.22-39.4,3.57-74,20.69-102.83,50.89-22.18,23.21-38.15,52.83-50.28,93.22-7.56,25.17-15.19,52.62-24,86.37-7,27-17.74,48.47-32.7,65.75a17,17,0,0,0-3.41,5.57,11.2,11.2,0,0,0-.47,5.76C218.55,34.35,220.85,36.19,224.66,36.19ZM251,5.82c.34-.72.64-1.37.91-2,.57-1.25,1.06-2.32,1.64-3.39,7.31-13.5,11.58-28.6,15.71-43.2l.47-1.66c3-10.59,5.94-21.39,8.78-31.84,4.9-18,10-36.56,15.47-54.71,11-36.06,25.35-62.74,45.3-83.94,25.67-27.28,56.76-42.92,92.39-46.48a31.25,31.25,0,0,1,3.23-.14c.85,0,1.72,0,2.66,0s2.15,0,3.38,0a3.51,3.51,0,0,1,2.86,1.48,3.5,3.5,0,0,1,.44,3.18c-.35,1-.65,1.92-.94,2.8-.61,1.85-1.19,3.59-1.94,5.29-17.53,39.76-37.3,73.58-60.45,103.38C371-132.56,360.43-120,350.24-107.95c-4.74,5.63-9.64,11.45-14.4,17.2l-.81,1A24.77,24.77,0,0,0,332.2-86a7.47,7.47,0,0,0,1,8.8,7.35,7.35,0,0,0,8.67,1.27,23.9,23.9,0,0,0,5.8-4.73c46.95-51.28,81.57-102.58,105.85-156.86.54-1.23,1.14-2.45,1.89-4l1.35-2.78a3.47,3.47,0,0,1,3.11-2,3.54,3.54,0,0,1,3.16,1.92,134.37,134.37,0,0,1,11.8,34.69c5.35,25.68,4.69,48.66-2,70.24s-20,38.22-32.15,51.8a217,217,0,0,1-43.18,36.81C371.12-33.64,346.08-20.94,320.86-12,305.07-6.38,289-.76,273.45,4.68L260.59,9.17c-1.08.38-2.16.65-3.42,1-.63.16-1.34.33-2.15.55a3.42,3.42,0,0,1-.9.12,3.5,3.5,0,0,1-3.17-5Z"/><path class="cls-4" d="M490.47,1789.27c-4.76-22.4-10.46-40.45-22.77-55.77a9.55,9.55,0,0,1-1.54-3.11q-.12-.41-.27-.78a3.48,3.48,0,0,1-.15-2.25c7.66-28.56,10.64-52.48,9.4-75.27a28,28,0,0,0-1.59-8.6c-1.1-2.78-3.38-4.13-6.66-4-3.1.12-5.12,1.52-6,4.16a32.32,32.32,0,0,0-1.37,8.77c-.21,4.07-.31,8.23-.4,12.26-.18,7.37-.36,15-1.19,22.5-.86,7.81-2.5,15.58-4.07,23.11-.67,3.2-1.37,6.52-2,9.78a3.5,3.5,0,0,1-3.44,2.84c-2.29,0-4.38,0-6.41-.09-1.76,0-3.43-.07-5.06-.07-2.19,0-4,.07-5.61.22-39.4,3.57-74,20.69-102.83,50.89-22.18,23.21-38.15,52.83-50.28,93.22-7.56,25.17-15.19,52.62-24,86.37-7,27-17.74,48.49-32.71,65.75a17.14,17.14,0,0,0-3.4,5.57,11.2,11.2,0,0,0-.47,5.76c.92,3.8,3.22,5.64,7,5.64a16.46,16.46,0,0,0,4.93-.86q9.45-3,18.91-6c14.79-4.64,30.08-9.44,44.92-14.64,30.33-10.64,62.37-22.45,91.45-39.48C417,1956.42,440.28,1937.59,458,1916c16-19.46,25.39-35.9,30.41-53.3C495.18,1839.31,495.86,1814.6,490.47,1789.27Zm-17.72,71.3c-6.69,21.45-20,38.22-32.15,51.8a217,217,0,0,1-43.18,36.81c-26.3,17.18-51.34,29.88-76.56,38.84-15.79,5.6-31.86,11.22-47.41,16.66l-12.86,4.49c-1,.37-2.1.64-3.32.95-.66.16-1.39.35-2.23.58a3.57,3.57,0,0,1-.92.12,3.5,3.5,0,0,1-3.17-5c.33-.71.62-1.34.88-1.92.58-1.27,1.08-2.37,1.67-3.45,7.31-13.5,11.58-28.6,15.71-43.2l.47-1.66c3-10.59,5.94-21.39,8.78-31.84,4.9-18,10-36.56,15.47-54.71,11-36.06,25.35-62.74,45.3-83.94,25.68-27.29,56.77-42.93,92.39-46.48a31.25,31.25,0,0,1,3.23-.14c.85,0,1.72,0,2.66,0s2.15,0,3.38,0a3.5,3.5,0,0,1,3.3,4.66c-.35,1-.65,1.92-.94,2.8-.61,1.85-1.19,3.59-1.94,5.29-17.53,39.76-37.3,73.58-60.45,103.38-9.89,12.72-20.43,25.24-30.62,37.33-4.74,5.63-9.64,11.45-14.4,17.2l-.81,1a24.77,24.77,0,0,0-2.83,3.78,7.55,7.55,0,0,0,1,8.8,7.35,7.35,0,0,0,8.67,1.27,23.9,23.9,0,0,0,5.8-4.73c46.95-51.28,81.57-102.58,105.85-156.86.54-1.23,1.14-2.45,1.89-4l1.35-2.78a3.47,3.47,0,0,1,3.11-2,3.56,3.56,0,0,1,3.16,1.92,134.45,134.45,0,0,1,11.8,34.7C480.14,1816,479.48,1839,472.75,1860.57Z"/><path class="cls-4" d="M145,116.49c.31.61.62,1.22.9,1.84,1.79,3.91,3.74,7.87,5.63,11.7,4.24,8.6,8.63,17.5,11.69,26.79,7.09,21.52,13.7,44.6,20.2,70.56C194.61,272.14,210,306.67,231.83,336c31.86,42.89,72.93,64.63,122.08,64.63a183.93,183.93,0,0,0,21.7-1.32c2.49-.29,5-.51,7.46-.73l3.2-.29a1.83,1.83,0,0,1,.33,0,3.5,3.5,0,0,1,3.17,2c.25.54.51,1,.75,1.51a18.07,18.07,0,0,1,1.52,3.55c3.11,11.38,6.21,23,9.22,34.15l3.41,12.72c.32,1.2.61,2.4.91,3.61a53,53,0,0,0,2.18,7.49,7.38,7.38,0,0,0,6.78,4.63,6.42,6.42,0,0,0,1.16-.11,7.33,7.33,0,0,0,6.1-7.49,30.79,30.79,0,0,0-.81-6.48c-3.72-18.36-8.51-39.64-15.85-58.21a3.5,3.5,0,0,1-.1-2.3c.95-3.16,1.91-6.16,2.84-9.07,1.92-6,3.74-11.72,5.08-17.42a183.17,183.17,0,0,0-3.36-98.07c-12.83-41.08-37.34-72.56-74.93-96.24-28.06-17.68-60.09-30.74-100.8-41.1l-2.27-.57c-23.8-6.05-48.41-12.3-70.49-25.21a30.68,30.68,0,0,0-7.18-2.86c-3.63-1-7.11,0-9.1,2.47a8.7,8.7,0,0,0-1.36,7.57A17.87,17.87,0,0,0,145,116.49Zm29,16.61a3.51,3.51,0,0,1,3.22-.79q10.1,2.7,20.08,5.34c14.85,3.94,30.22,8,45.22,12.19,41.61,11.56,73.69,26.82,101,48,24.32,18.9,41.63,44.52,51.44,76.15,8.18,26.37,9.59,54.4,4.2,83.32a16.3,16.3,0,0,1-.9,2.86c-.18.47-.39,1-.62,1.65a3.5,3.5,0,0,1-6.32.6c-.41-.69-.78-1.3-1.12-1.85-.67-1.09-1.24-2-1.76-3.1-19.24-39.95-42-73.65-69.59-103-12.77-13.6-25.27-24.32-38.21-32.77-3.06-2-6-4.14-8.91-6.21-1.77-1.28-3.54-2.56-5.34-3.8a40,40,0,0,0-5.19-3.25,9.87,9.87,0,0,0-4.36-1.1,6.94,6.94,0,0,0-5.93,3.24c-1.95,2.92-1.2,7.17,1.78,10.09a28.45,28.45,0,0,0,3.28,2.6l1,.76c3.36,2.45,6.86,4.89,10.24,7.25a254.64,254.64,0,0,1,22.13,16.63c28.27,24.66,52.05,55,72.7,92.77,4.44,8.12,8.54,16.26,12.87,24.88,2,4,4,8,6.11,12.08a3.5,3.5,0,0,1-2.23,5,85.24,85.24,0,0,1-22.25,2.69c-1.27,0-2.53,0-3.8,0-45.76-1.25-83-22-110.7-61.5-18.48-26.39-32.14-57-41.75-93.62q-2.1-8-4.14-16c-6.42-25.06-13.07-51-22.81-75.38a7.72,7.72,0,0,1-.46-2.18c0-.09,0-.18,0-.26A3.54,3.54,0,0,1,174,133.1Z"/><path class="cls-4" d="M333.14,1648c19.55-23.64,34.22-51.2,48.42-77.85,5.94-11.17,13.5-24.08,24.46-35.09a37.69,37.69,0,0,0,5-6.11c1.92-3,1.9-5.81-.06-8.6s-4.38-3.67-7.32-2.92a52.4,52.4,0,0,0-9.62,3.94l-.64.31c-1.77.86-3.51,1.88-5.35,3-3.5,2.06-7.13,4.19-11.22,5.28a299.35,299.35,0,0,1-38.15,8,279.55,279.55,0,0,1-36.64,2.11h0c-11.48,0-23.12-.46-34.38-.91-7.42-.3-15.1-.61-22.64-.78-4.13-.09-7.88-.14-11.46-.14-18.07,0-32.74,1.21-46.16,3.82-19.46,3.78-42.12,9.45-62.69,22.86-40.07,26.14-61,59.5-64,102a5,5,0,0,1-1.07,2.59c-.08.11-.17.23-.26.37a3.48,3.48,0,0,1-2.32,1.63c-.38.07-.76.16-1.17.26a23.33,23.33,0,0,1-3.51.62c-6.83.52-13.65.78-20.28.78a240.14,240.14,0,0,1-43.67-3.93c-7.13-1.32-14.31-2.91-21.26-4.45-3.93-.87-8-1.77-12-2.6-3.79-.8-7.3.2-9.16,2.56a7.51,7.51,0,0,0-1.15,6.54c.85,3.51,3.32,5.44,8.5,6.66,27.11,6.43,50,10.7,73.46,10.7h.66c8.7,0,17.29-.39,26.39-.77,4.21-.18,8.46-.35,12.78-.5h.12a3.54,3.54,0,0,1,2.3.86c.88.77,1.76,1.57,2.65,2.37,1.8,1.64,3.66,3.34,5.59,4.78a71.9,71.9,0,0,0,9.58,6.21c31.2,16.51,63,24.88,94.39,24.88a187.36,187.36,0,0,0,28.82-2.27c35.33-5.53,65.43-19.31,89.48-40.93A331.9,331.9,0,0,0,333.14,1648Zm-44.38,24c-30.33,25.6-66,38.57-106,38.57h0a202.85,202.85,0,0,1-22.7-1.31c-19.57-2.22-39-8.18-59.39-18.23-1.77-.87-3.38-1.72-4.89-2.6a4.77,4.77,0,0,1-1.93-2.36l.08.14a3.5,3.5,0,0,1,2-5.1l11.26-3.58c7.9-2.5,16.07-5.08,24.06-7.72,26.08-8.61,53.91-20,87.59-35.93,8.63-4.08,17.13-9,25.36-13.71,3.13-1.8,6.27-3.61,9.42-5.37a13.06,13.06,0,0,0,3.49-3.06,7.15,7.15,0,0,0-7.32-11.56,55,55,0,0,0-9.51,4.55c-38.39,22-81.77,40.34-136.53,57.56-4.68,1.47-9.49,2.58-14.13,3.65-1.82.41-3.64.83-5.44,1.27a7.75,7.75,0,0,1-2.73,0c-.38,0-.84-.1-1.43-.14a3.51,3.51,0,0,1-3.22-4c.17-1.28.31-2.55.44-3.82a72.32,72.32,0,0,1,1.3-8.72c6.93-29.43,24.56-53.08,53.92-72.32,18.15-11.89,38.2-17,57.17-20.78,12.84-2.55,26.52-3.69,44.36-3.69q3.72,0,7.44.06c9.75.15,19.64.47,29.2.79,11.82.39,24.05.79,36.05.86h1.84c19.52,0,36.62-1.72,52.28-5.27,1.42-.32,2.81-.58,4.57-.91l3.35-.63a3.5,3.5,0,0,1,3.79,5c-.77,1.54-1.45,2.94-2.09,4.26-1.28,2.63-2.39,4.9-3.65,7.15q-3,5.31-5.92,10.64c-12.76,23-26,46.83-43.75,67.31C309.08,1652.36,299.46,1663,288.76,1672Z"/><path class="cls-4" d="M-43.56,1143.17c-3.8.23-6.4,2.38-7.12,5.91a7.56,7.56,0,0,0,4.41,8.13,25.06,25.06,0,0,0,6.14,1.77,294.28,294.28,0,0,0,48.44,4c5.46,0,11-.15,16.48-.45.66,0,1.3-.06,1.93-.06a20.46,20.46,0,0,1,12.61,4,122.27,122.27,0,0,0,21.76,12.65,186.28,186.28,0,0,0,75.15,16.16,195.5,195.5,0,0,0,53.9-7.83c46.12-13.26,81.95-35.28,109.54-67.33,30-34.84,49.76-77.69,60.46-131a171.94,171.94,0,0,0,2.77-21.34c.34-4.65-1.38-8.08-5.1-10.18a7.18,7.18,0,0,0-3.59-1c-1.93,0-4.07.81-7.16,2.71a79.57,79.57,0,0,1-14.85,7.42,220,220,0,0,1-51.37,11.44q-8.94.93-17.88,1.79c-24.45,2.4-49.72,4.87-74.15,10.11-22.76,4.88-43.16,9.63-62.28,18.41-31.84,14.62-54.63,37.93-67.75,69.27-4.61,11-8.75,22.48-12.75,33.58-1.83,5.08-3.72,10.33-5.64,15.48-1.38,3.69-2.77,7.37-4.22,11.21l-2.3,6.1a3.5,3.5,0,0,1-3,2.26c-1.19.1-2.3.21-3.35.31-2.12.21-4.12.4-6.14.46-3.85.1-7.66.16-11.3.16h0a285.78,285.78,0,0,1-47.78-3.68A26.83,26.83,0,0,0-43.56,1143.17Zm97.06-4.58c.13-.6.23-1.17.33-1.71a23.42,23.42,0,0,1,.94-3.87c1.74-4.76,3.46-9.61,5.13-14.3,4.13-11.58,8.39-23.55,13.22-35.12,11.76-28.1,32.4-48.87,61.36-61.71,17.43-7.74,37.43-13.27,62.93-17.39,22.27-3.62,45.65-6.69,69.5-9.14,25.94-2.66,47.48-5.93,68.3-13.22a25.86,25.86,0,0,1,3-.79l1.63-.39a3.48,3.48,0,0,1,4.33,3c0,.32.11.62.16.91a8.24,8.24,0,0,1,.16,3.42c-11.89,56.78-34,100.44-67.64,133.47-24.16,23.72-53.82,40.31-90.67,50.7a183.31,183.31,0,0,1-49.66,7h0A175.35,175.35,0,0,1,76,1168.53c-1.89-.69-3.74-1.48-5.52-2.24l-2.41-1a3.49,3.49,0,0,1-2.08-4l.33-1.5a3.52,3.52,0,0,1,2.55-2.63l8-2c6-1.5,12.18-3.06,18.22-4.72,31.66-8.73,62.89-23.08,95.48-43.87,10.85-6.93,21.52-14.64,31.85-22.1q5.79-4.18,11.6-8.34c7.4-5.27,14.94-10.83,22.44-16.53a28.61,28.61,0,0,0,5.89-5.69,7.29,7.29,0,0,0-.48-8.7,7.54,7.54,0,0,0-8.23-1.93,21.56,21.56,0,0,0-4.91,2.84q-7.08,5.26-14.1,10.6c-6.19,4.68-12.59,9.52-19,14.2-49.92,36.73-95.32,58.69-142.87,69.11-2.52.56-5.85,1.28-9.22,1.92-1.29.24-2.56.41-4,.59l-2.14.28a3.5,3.5,0,0,1-3.89-4.21Z"/><path class="cls-4" d="M327,638.41a7.15,7.15,0,0,0-1,.08c-3.3.51-5.32,2.42-6.38,6-.83,2.84-1.64,5.69-2.45,8.54-1.84,6.46-3.74,13.15-5.86,19.67-5,15.36-11.78,28.77-20.25,39.85a3.49,3.49,0,0,1-3,1.36c-2.06-.13-4-.29-5.82-.44-3.33-.28-6.21-.52-9-.52H272.1c-7.56.19-15.27.5-22.72.8-7.15.29-14.53.59-21.82.78-22.39.59-46.24,2-68.93,8.48-32.88,9.34-57.59,21.4-77.75,38-17.31,14.21-31.93,32.16-46,56.5-5.07,8.77-9.93,17.91-14.63,26.75C7.78,867.7-5.11,892-23.56,912.54c-2.92,3.24-2.11,8.91.48,12.16a6.85,6.85,0,0,0,5.78,2.87,17.58,17.58,0,0,0,5.46-1.07c1.4-.48,2.81-1,4.21-1.48,5.81-2.06,11.82-4.19,18.09-5l.33,0c19-2.42,38.68-4.93,58.18-5.59,35.48-1.21,65.14-3.32,94.52-9.72,61.36-13.35,104-48.56,126.77-104.64,10.11-24.92,13.1-45.8,9.41-65.71-.69-3.69,1-8.06,2.84-10.55,14.22-19.07,23.9-41.52,31.37-72.77a18.5,18.5,0,0,0,.26-6.62A7.2,7.2,0,0,0,327,638.41ZM285.38,755.32c-.17,1.3-.3,2.6-.44,3.9a78.47,78.47,0,0,1-1.34,9.18,168.08,168.08,0,0,1-31.17,66.51c-19,24.69-45,41.46-79.35,51.26-25.84,7.38-54.34,11.2-89.69,12-25.53.59-46.95,1.66-68.49,5a7.77,7.77,0,0,1-1.22.09c-.43,0-.87,0-1.3-.07-.2,0-.39,0-.58,0a3.51,3.51,0,0,1-3.31-2.65,2.13,2.13,0,0,0-.09-.3,4.28,4.28,0,0,1,.09-3.61Q14.77,885.46,21,874.4c10.76-19.17,21.89-39,33.15-58.33,18.49-31.77,45.36-54.4,82.16-69.17,26.95-10.83,56.29-16.17,92.34-16.8,9.13-.16,18.45-.6,27.46-1q6.1-.29,12.23-.55a3.51,3.51,0,0,1,3.19,1.78l.7,1.22.06.11a3.51,3.51,0,0,1-.5,4.17c-11.84,12.41-22.46,21.71-33.44,29.26-22.31,15.36-48.27,29.54-81.71,44.65q-6.78,3.06-13.57,6.09c-10.88,4.86-22.13,9.89-33,15.11a236.92,236.92,0,0,0-21.44,12.14l-.82.5a14.88,14.88,0,0,0-4.85,4.78,6.84,6.84,0,0,0-.14,6.95,6.65,6.65,0,0,0,5.87,3.38h.12a13.9,13.9,0,0,0,6.91-2.06c16.44-10.39,34.32-18.21,51.61-25.76,5.22-2.28,10.62-4.64,15.88-7,29.24-13.28,52.66-25.68,73.68-39A233.7,233.7,0,0,0,273,756.56a20.71,20.71,0,0,1,7.76-5,3.49,3.49,0,0,1,4.65,3.74Z"/><path class="cls-4" d="M-65.81,580.55a101.18,101.18,0,0,0,9.48,12.21c7.72,8.49,15.3,16.75,23.19,24.47,19.21,18.78,44,32.74,78,43.95a151.87,151.87,0,0,0,47.47,8c23.36,0,46-6.16,67.41-18.29a335.76,335.76,0,0,0,46.44-32.29c24.43-20,47-43,68.84-65.2q3.51-3.58,7-7.16c10.36-10.53,21.62-20.44,32.51-30,3.29-2.9,6.59-5.8,9.86-8.72,4.37-3.89,5.47-9,2.94-13.6-1.47-2.69-3.58-3.89-6.85-3.89a18.78,18.78,0,0,0-4.82.72l-2.2.59c-9.66,2.59-19.64,5.27-29.64,7.27a195.28,195.28,0,0,1-38.69,4.14h0a139.18,139.18,0,0,1-42.72-6.41c-11.17-3.56-22.75-6.6-33.94-9.53L161.9,485c-18.51-4.89-37.64-9.94-57-11.28-3.91-.27-7.87-.41-11.78-.41-30.17,0-60.95,8-94.12,24.58-7.19,3.59-14.28,7.83-21.14,11.93-4,2.38-8.09,4.84-12.21,7.17l-1.38.78c-14.78,8.35-28.73,16.24-40,28.8a3.49,3.49,0,0,1-3.92.9c-1-.41-2-.79-3-1.16-2.16-.83-4.39-1.69-6.54-2.77-10.45-5.24-21.05-10.62-31.31-15.82l-13.83-7c-.5-.25-1-.51-1.49-.78a25.41,25.41,0,0,0-3.47-1.63,9.26,9.26,0,0,0-3-.53,7.25,7.25,0,0,0-6.3,3.44,7.46,7.46,0,0,0,1.62,9.5,25.67,25.67,0,0,0,5.79,3.94c4.37,2.23,8.79,4.54,13,6.78,11.34,5.95,23.07,12.1,35,17.06C-81.18,563.56-72.46,570.55-65.81,580.55Zm10.37-31.91c1-.74,1.94-1.44,2.79-2.09A48,48,0,0,1-47.54,543c5.94-3.45,11.93-7.07,17.73-10.57,13.72-8.28,27.9-16.84,42.6-23.92,26.77-12.89,54-19.43,81.06-19.43a178,178,0,0,1,50.35,7.43c10.22,3,20.73,5.78,30.89,8.46,9.24,2.43,18.79,4.95,28.15,7.66a151.43,151.43,0,0,0,42,5.83,178.06,178.06,0,0,0,23.19-1.56c2.74-.37,5.49-.7,8.69-1.08l4.39-.53a3.5,3.5,0,0,1,2.94,5.9c-2.7,2.81-5.28,5.54-7.8,8.2-5.17,5.48-10.07,10.66-15.22,15.65-19.26,18.63-39.79,38.43-60.3,57.53a246.69,246.69,0,0,1-47.64,34.27c-19.62,11-40.33,16.55-61.56,16.55h0a136.45,136.45,0,0,1-41-6.57C17.89,636.39-8,621.38-28,600.9A173.47,173.47,0,0,1-39.9,587c-1.46-1.84-3-3.73-4.47-5.57a3.61,3.61,0,0,1-1-.94l-.24-.32a3.49,3.49,0,0,1,.2-4.36,3.51,3.51,0,0,1,4.3-.78l.09,0,.08,0c1.83.25,3.66.48,5.49.71,4.78.6,9.71,1.21,14.56,2.25A388.19,388.19,0,0,0,60,586.36c14.88,0,30.36-.79,46-2.36,8.57-.87,17.29-2.37,25.72-3.83,3.79-.66,7.72-1.33,11.59-1.95a24,24,0,0,0,2.85-.68c5.24-1.44,7.86-4.78,7-8.95-.79-3.92-3.83-6.26-8.12-6.26a12.3,12.3,0,0,0-1.58.1c-4.84.62-9.77,1.46-14.53,2.27-2.8.47-5.59.95-8.39,1.39a387.8,387.8,0,0,1-59.77,4.69A383.66,383.66,0,0,1-10.61,564c-11.18-2.12-22.53-4.38-33.5-6.56l-5.07-1a22.5,22.5,0,0,1-3.14-.93l-2.14-.73A3.52,3.52,0,0,1-56.84,552,3.52,3.52,0,0,1-55.44,548.64Z"/><path class="cls-4" d="M-14.59,1523.2a238.59,238.59,0,0,0,45.7-4.42c42.72-8.37,76.45-26.74,103.13-56.17,19.44-21.46,31.78-44,37.71-68.93a245.51,245.51,0,0,0,6.94-48.66c.35-9.52,3.34-17.08,9.42-23.82a271.63,271.63,0,0,0,40-59.24,28.84,28.84,0,0,0,3-8.86c.46-3.32-1.74-5.21-3.67-6.21-2.74-1.43-5.27-1.28-7.44.5a21.54,21.54,0,0,0-4.59,5.69c-1.65,2.79-3.22,5.73-4.74,8.57-2.43,4.52-4.94,9.19-7.87,13.58-5.92,8.88-12.11,17.5-18.1,25.83-2.36,3.28-4.68,6.51-6.93,9.68a3.48,3.48,0,0,1-3.63,1.38c-4.4-1-8.57-2-12.59-2.91-8.24-1.92-16-3.73-23.71-5.31a236.29,236.29,0,0,0-47.31-5,207.31,207.31,0,0,0-55.91,7.62c-40.39,11.32-73.55,34.65-101.37,71.33-19.22,25.35-31.34,53.62-40.65,77.92l-1,2.46c-6.39,16.7-13,34-23.44,49.33a8.4,8.4,0,0,0-1.32,7.74c1.59,5,4.72,7.47,9.59,7.47a19.71,19.71,0,0,0,4.2-.5A178.35,178.35,0,0,1-80,1517.53a127.17,127.17,0,0,1,21.62,1.81A255.87,255.87,0,0,0-14.59,1523.2Zm-85.22-20.1a13.5,13.5,0,0,1-3.06.12c-.53,0-1.14,0-1.88,0a3.49,3.49,0,0,1-2.94-1.6,3.49,3.49,0,0,1-.25-3.34c4.92-10.87,9.35-22.08,13.64-32.92,9.6-24.27,19.53-49.37,35.23-71.34,23.77-33.22,51-55.25,83.1-67.33a186.06,186.06,0,0,1,65.62-12c6.27,0,12.68.31,19,.94,10.34,1,20.69,3,30.7,4.85,4.22.79,8.58,1.61,12.86,2.35a16,16,0,0,1,3.18,1c.55.21,1.18.46,1.94.72a3.51,3.51,0,0,1,1.17,5.93l-2.19,2c-1.41,1.26-2.63,2.35-3.89,3.4-34.87,29.25-73.14,51.59-113.72,66.38-4.4,1.6-8.92,2.89-13.29,4.15-2.58.73-5.25,1.5-7.83,2.31l-2.34.72A44.72,44.72,0,0,0,7,1412.45a7,7,0,0,0-3.29,8,7,7,0,0,0,7,5.25h.48a22.77,22.77,0,0,0,5.21-.65c24.49-5.78,49.67-15.84,79.23-31.67a354.33,354.33,0,0,0,54.38-35.94c1.5-1.21,3.11-2.29,4.61-3.28a5.1,5.1,0,0,1,2.61-.76c.27,0,.61,0,1.07-.11a3.5,3.5,0,0,1,3.95,3.86c-.17,1.46-.32,2.9-.47,4.32-.35,3.24-.68,6.29-1.1,9.42-5,37.17-22,68.74-50.65,93.82-22.29,19.51-49.42,32.44-80.63,38.43a236.16,236.16,0,0,1-44.2,4.17,257.38,257.38,0,0,1-41.81-3.51C-73.76,1501-87.21,1500.82-99.81,1503.1Z"/><path class="cls-4" d="M-91.09,129.18a7.89,7.89,0,0,0,2.77-.51,36.16,36.16,0,0,0,7-3.62c21.78-13.86,37.09-25.87,49.62-39a3.48,3.48,0,0,1,3.1-1c1.79.29,3.42.61,5,.93a44.46,44.46,0,0,0,8,1.13h1.42A133.08,133.08,0,0,0,36.3,77.18C61.57,66.84,82.24,49.66,97.73,26.1,118.85-6,127.45-40.81,123.29-77.23c-2-17.77-6.44-34.8-11.19-52.13-1.8-6.58-4-13.25-6.07-19.69-6.14-18.88-12.5-38.41-11.1-59.68a5.17,5.17,0,0,0-1.43-4,8.13,8.13,0,0,0-5.9-2.33,10.1,10.1,0,0,0-2.11.23c-3.65.84-6.24,3-8.63,7.27A207.81,207.81,0,0,1,64.58-188.2C51-169.3,33.23-154.39,16-140l-1.7,1.42C-.87-125.8-18.32-110.77-33.08-93.63-54.53-68.71-66.35-42.37-69.21-13.11c-2.42,24.86.94,44.3,10.59,61.18,3.07,5.38,6.32,10.53,10.09,16.48,1.76,2.78,3.6,5.69,5.52,8.79a3.51,3.51,0,0,1-1.08,4.8l-1.24.77c-1.18.72-2.64,1.62-3.94,2.6q-13.12,9.88-26.21,19.79L-89.61,112c-.84.64-1.7,1.22-2.53,1.78a27.27,27.27,0,0,0-4,3.07,7.61,7.61,0,0,0-1,9.17A7,7,0,0,0-91.09,129.18ZM-53.55-12.37C-51-37.06-41.36-59.3-24-80.34-9.31-98.08,7.93-113,22.94-125.55l1.83-1.53C42.1-141.6,60-156.61,74-174.85a6,6,0,0,1,1.7-1.41l.15-.09a3.62,3.62,0,0,1,3.65-.2l.1,0a4.24,4.24,0,0,1,2.6,2.65q2.94,10,5.93,19.86c5,16.69,10.22,34,14.63,51.14A182.1,182.1,0,0,1,108.46-64c1.32,38.1-11.74,71.89-38.81,100.44C50.1,57,24.66,68.73-6,71.15q-.74.06-1.47.06c-.59,0-1.19,0-1.79-.09a5.54,5.54,0,0,1-2.2-.76c-.2-.11-.46-.26-.82-.43a3.49,3.49,0,0,1-1.87-2.27,3.49,3.49,0,0,1,.52-2.89l1.41-2c1.18-1.68,2.33-3.34,3.51-5C18.44,20.07,38.1-16.77,51.43-54.83,54.7-64.17,57.37-74,60-83.42l.83-3A15.64,15.64,0,0,0,61-93.32c-.57-3-2.52-4.72-5.79-5.18a6.47,6.47,0,0,0-7.13,3.42A38.69,38.69,0,0,0,44.68-86C32.58-39.69,10.32,5.29-23.39,51.52c-1.26,1.74-2.58,3.37-3.82,4.87a5.13,5.13,0,0,1-2.37,1.51l-1,.38A3.5,3.5,0,0,1-34.82,57c-.76-1.11-1.53-2.22-2.32-3.34-1.66-2.38-3.38-4.84-5-7.4C-52.19,30.11-55.93,10.93-53.55-12.37Z"/><path class="cls-4" d="M112.1,1870.64c-1.8-6.58-4-13.25-6.07-19.69-6.14-18.88-12.5-38.41-11.1-59.68a5.17,5.17,0,0,0-1.43-4,8.13,8.13,0,0,0-5.9-2.33,10.1,10.1,0,0,0-2.11.23c-3.65.84-6.24,3-8.63,7.27a207.81,207.81,0,0,1-12.28,19.38C51,1830.7,33.23,1845.61,16,1860l-1.7,1.42c-15.21,12.75-32.66,27.78-47.42,44.92-21.45,24.92-33.27,51.26-36.13,80.52-2.42,24.86.94,44.3,10.59,61.18,3.07,5.38,6.32,10.53,10.09,16.48,1.76,2.78,3.6,5.69,5.52,8.79a3.51,3.51,0,0,1-1.08,4.8l-1.24.77c-1.18.72-2.64,1.62-3.94,2.6q-13.12,9.88-26.21,19.79L-89.61,2112c-.84.64-1.7,1.22-2.53,1.78a27.27,27.27,0,0,0-4,3.07,7.61,7.61,0,0,0-1,9.17,7,7,0,0,0,6,3.17,7.89,7.89,0,0,0,2.77-.51,36.16,36.16,0,0,0,7-3.62c21.78-13.86,37.09-25.87,49.62-39a3.48,3.48,0,0,1,3.1-1c1.79.29,3.42.61,5,.93a44.46,44.46,0,0,0,8,1.13h1.42a133.08,133.08,0,0,0,50.51-10c25.27-10.34,45.94-27.52,61.43-51.08,21.12-32.14,29.72-66.91,25.56-103.33C121.27,1905,116.85,1888,112.1,1870.64ZM69.65,2036.43c-19.55,20.61-45,32.3-75.62,34.72q-.74.06-1.47.06c-.59,0-1.19,0-1.79-.09a5.54,5.54,0,0,1-2.2-.76c-.2-.11-.46-.26-.82-.43a3.49,3.49,0,0,1-1.87-2.27,3.49,3.49,0,0,1,.52-2.89l1.41-2c1.18-1.68,2.33-3.34,3.51-5,27.12-37.72,46.78-74.56,60.11-112.62,3.27-9.34,5.94-19.13,8.53-28.59l.83-3a15.49,15.49,0,0,0,.24-6.85c-.57-3-2.52-4.72-5.79-5.18a6.47,6.47,0,0,0-7.13,3.42,38.69,38.69,0,0,0-3.43,9.08c-12.1,46.31-34.36,91.29-68.07,137.52-1.26,1.74-2.58,3.37-3.82,4.87a5.13,5.13,0,0,1-2.37,1.51c-.24.09-.55.21-1,.38a3.5,3.5,0,0,1-4.29-1.24c-.76-1.11-1.53-2.22-2.32-3.34-1.66-2.38-3.38-4.84-5-7.4-10.07-16.19-13.81-35.37-11.43-58.67,2.51-24.69,12.19-46.93,29.57-68,14.67-17.74,31.91-32.64,46.92-45.21l1.68-1.4C42,1858.49,60,1843.44,74,1825.15a6,6,0,0,1,1.7-1.41l.15-.09a3.62,3.62,0,0,1,3.65-.2l.1,0a4.24,4.24,0,0,1,2.6,2.65q2.94,10,5.93,19.86c5,16.69,10.22,34,14.63,51.14a182.1,182.1,0,0,1,5.67,38.85C109.78,1974.09,96.72,2007.88,69.65,2036.43Z"/><path class="cls-4" d="M-74.15,453.74c.32,0,.64.05,1,.05a7,7,0,0,0,6.85-4.9,33.61,33.61,0,0,0,1.27-5.29c.13-.66.25-1.31.38-2,2.48-11.94,4.93-23.87,7.42-36l.12-.58a3.5,3.5,0,0,1,3-2.77l3-.39c1.26-.17,2.2-.29,3.14-.39,30.77-3.19,56-13.7,77.21-32.12S67,327.46,79.46,297.84c9.2-21.82,12.11-44.75,14.3-66.36q.48-4.83.95-9.66c2.47-25.49,5-51.86,14.67-76.77a8.5,8.5,0,0,0-3.49-10.43,8.7,8.7,0,0,0-4.64-1.52c-2.09,0-4.18,1-6.22,3C82.28,148.55,66.54,156.76,52.65,164L42,169.55C27,177.39,11.37,185.5-3.64,193.94a177.19,177.19,0,0,0-53.46,45.4C-85.69,276-96.15,317-88.2,360.94c2.38,13.17,5.86,26.94,15.13,38.42a3.49,3.49,0,0,1,.69,3c-.61,2.74-1.26,5.5-1.91,8.28-1.47,6.25-3,12.71-4.19,19.14a95.73,95.73,0,0,0-1.85,17.79C-80.32,451.17-77.22,453.41-74.15,453.74Zm11.56-176.06c13.71-29.35,36.18-52.71,68.7-71.41,12.57-7.23,25.65-14,38.3-20.5,5.61-2.9,11.42-5.89,17.1-8.89l18.62-9.8a3.51,3.51,0,0,1,5.1,3.59c-.24,1.62-.46,3.13-.67,4.57-.43,2.89-.8,5.38-1.09,7.91-.87,7.46-1.69,15.07-2.48,22.43C79.32,221,77.6,237,75.32,252.7,69,296.12,49,332.29,15.87,360.23c-15.37,12.95-33.68,20.93-56,24.38a9.65,9.65,0,0,1-1.54.11l-1,0c-.47,0-1.05,0-1.79,0a3.52,3.52,0,0,1-2.93-1.58,3.5,3.5,0,0,1-.28-3.32l1.92-4.4c9.75-22.4,19-43.54,32.92-62.62C-1.64,297.49,10,282.2,21.31,267.42q8.06-10.56,16.08-21.13l.83-1.08a35.94,35.94,0,0,0,3.72-5.49A7.32,7.32,0,0,0,40.48,231a7,7,0,0,0-4.83-1.93,8.32,8.32,0,0,0-4.45,1.38,12.43,12.43,0,0,0-2.72,2.34c-25.74,31-50.44,61.7-69.56,96.58-4.49,8.18-8.5,16.88-12.37,25.29-1.76,3.85-3.59,7.82-5.45,11.71l-.17.34a19.35,19.35,0,0,1-4.38,6.37,3.48,3.48,0,0,1-3.27.86,3.5,3.5,0,0,1-2.48-2.31c-.22-.69-.47-1.38-.72-2.07a40,40,0,0,1-1.59-5.2C-78.19,333.2-75.28,304.83-62.59,277.68Z"/></g></svg>